<svg width="126" height="33" viewBox="0 0 126 33" fill="none" xmlns="http://www.w3.org/2000/svg">
<path d="M31.1298 14.3624C30.6792 14.3133 30.2344 14.5126 29.8965 14.8159C29.625 15.0585 29.469 15.2896 29.3823 15.512C29.1744 16.0637 28.7353 16.494 28.2068 16.754L26.0289 17.8256C26.0751 17.762 26.1214 17.6956 26.1705 17.632C26.4766 17.2248 26.6413 16.728 26.6442 16.2167L26.6817 11.8784C26.6817 10.931 25.9134 10.1598 24.9631 10.1598H23.3399V7.78268H22.7651V1.78641C22.7651 1.41381 22.4676 1.04121 22.0978 1.00366C21.653 0.960338 21.2776 1.30694 21.2776 1.74309V7.77979H20.7028V10.1569H12.7713V7.77979H12.1965V1.78641C12.1965 1.41381 11.899 1.04121 11.5293 1.00366C11.0845 0.960338 10.709 1.30694 10.709 1.74309V7.77979H10.1342V10.1569H8.51093C7.56354 10.1569 6.79235 10.9252 6.79235 11.8755V16.3814C6.79235 16.7655 6.92521 17.1352 7.15917 17.4385C8.08345 18.643 8.88064 19.9312 9.54497 21.2801L8.10945 21.9877C7.75129 22.1639 7.34692 22.1639 6.95987 22.0657C6.84145 22.0339 6.71436 22.0253 6.57861 22.0426C6.17712 22.0917 5.83052 22.395 5.72654 22.7878C5.56479 23.4059 5.98938 23.998 6.60171 24.0616C6.879 24.0905 7.15051 23.9691 7.35847 23.7843C7.52599 23.6341 7.62131 23.4926 7.6733 23.3568C7.80039 23.0189 8.0719 22.7531 8.3954 22.5943L9.83381 21.8866C9.984 22.2188 10.1284 22.5538 10.2642 22.8918L4.93512 25.5144C4.35167 25.8004 3.69312 25.8033 3.06345 25.6415C2.86993 25.5924 2.66197 25.5751 2.44245 25.604C1.78679 25.6848 1.22356 26.1787 1.05603 26.8171C0.79319 27.8222 1.4864 28.787 2.48 28.8938C2.93059 28.9429 3.3754 28.7436 3.71334 28.4403C3.98485 28.1977 4.14082 27.9667 4.22747 27.7442C4.43543 27.1926 4.87447 26.7622 5.40304 26.5022L10.6512 23.92C10.8361 24.4515 10.9978 24.9916 11.1422 25.5375L9.36878 26.4098C8.78533 26.6958 8.12678 26.6987 7.49711 26.5369C7.30359 26.4878 7.09563 26.4705 6.87611 26.4994C6.22045 26.5802 5.65722 27.0741 5.48969 27.7125C5.22685 28.7176 5.92006 29.6823 6.91366 29.7892C7.36425 29.8383 7.80905 29.639 8.14699 29.3357C8.4185 29.0931 8.57447 28.862 8.66113 28.6396C8.86909 28.088 9.30812 27.6576 9.83669 27.3976L11.4051 26.6264C11.4484 26.8315 11.4917 27.0366 11.5293 27.2446C11.6044 27.6432 11.6275 28.0475 11.6188 28.4519C11.5957 29.5495 12.7135 30.3062 13.7244 29.8788L20.8876 26.8517C21.5086 26.5889 21.9823 26.0603 22.1758 25.4133L22.1787 25.4018C22.3751 24.7432 22.6149 24.0818 22.8806 23.4232L25.3531 22.2072C25.7545 22.0108 26.208 22.0079 26.6384 22.1206C26.7712 22.1552 26.9157 22.1668 27.0659 22.1466C27.5164 22.0917 27.9035 21.7509 28.019 21.3118C28.1981 20.6215 27.7244 19.9601 27.0399 19.885C26.7308 19.8532 26.4246 19.989 26.1936 20.1969C26.0058 20.3644 25.899 20.5233 25.8412 20.6764C25.6968 21.0548 25.3964 21.3494 25.0324 21.5285L23.3427 22.3603C23.776 21.4303 24.2699 20.5233 24.8071 19.6539L28.6805 17.7476C29.2639 17.4616 29.9225 17.4587 30.5521 17.6205C30.7456 17.6696 30.9536 17.6869 31.1731 17.658C31.8288 17.5772 32.392 17.0833 32.5595 16.4449C32.8166 15.434 32.1263 14.4693 31.1298 14.3624Z" fill="url(#paint0_linear_2_288)"/>
<path d="M29.729 18.6947C29.0762 18.6196 28.4899 19.0875 28.4148 19.7403C28.3397 20.3931 28.8076 20.9794 29.4604 21.0545C30.1131 21.1296 30.6995 20.6617 30.7746 20.0089C30.8497 19.359 30.3818 18.7698 29.729 18.6947Z" fill="url(#paint1_linear_2_288)"/>
<path d="M3.44769 23.9084C3.7423 23.9431 4.00803 23.7293 4.04269 23.4347C4.07735 23.1401 3.86361 22.8744 3.569 22.8397C3.27438 22.805 3.00865 23.0188 2.97399 23.3134C2.94222 23.608 3.15307 23.8766 3.44769 23.9084Z" fill="url(#paint2_linear_2_288)"/>
<path d="M28.3454 13.9525C28.64 13.9872 28.9057 13.7734 28.9404 13.4788C28.9751 13.1842 28.7613 12.9185 28.4667 12.8838C28.1721 12.8492 27.9064 13.0629 27.8717 13.3575C27.8399 13.6521 28.0508 13.9179 28.3454 13.9525Z" fill="url(#paint3_linear_2_288)"/>
<path d="M16.7862 12.8779H20.8559L17.7047 17.0545H20.1974L12.6183 24.3274L15.9341 18.2936H13.7014L16.7862 12.8779Z" fill="white"/>
<mask id="path-6-outside-1_2_288" maskUnits="userSpaceOnUse" x="39.6135" y="5" width="86" height="26" fill="black">
<rect fill="white" x="39.6135" y="5" width="86" height="26"/>
<path d="M40.9335 16.68C40.9335 15.688 40.9975 14.712 41.1255 13.752C41.2695 12.792 41.5095 11.888 41.8455 11.04C42.1815 10.176 42.6455 9.416 43.2375 8.76C43.8295 8.088 44.5735 7.568 45.4695 7.2C46.3815 6.816 47.4855 6.624 48.7815 6.624C49.1175 6.624 49.4855 6.64 49.8855 6.672C50.3015 6.704 50.6375 6.76 50.8935 6.84V8.64C50.6055 8.544 50.2775 8.472 49.9095 8.424C49.5575 8.376 49.1975 8.352 48.8295 8.352C47.7255 8.352 46.8055 8.536 46.0695 8.904C45.3335 9.272 44.7495 9.776 44.3175 10.416C43.9015 11.056 43.5975 11.792 43.4055 12.624C43.2135 13.456 43.0935 14.344 43.0455 15.288H43.1895C43.4295 14.904 43.7335 14.56 44.1015 14.256C44.4695 13.952 44.9095 13.712 45.4215 13.536C45.9495 13.36 46.5575 13.272 47.2455 13.272C48.2375 13.272 49.1015 13.48 49.8375 13.896C50.5895 14.296 51.1735 14.888 51.5895 15.672C52.0055 16.44 52.2135 17.376 52.2135 18.48C52.2135 19.664 51.9895 20.688 51.5415 21.552C51.0935 22.416 50.4615 23.08 49.6455 23.544C48.8455 24.008 47.8855 24.24 46.7655 24.24C45.9495 24.24 45.1895 24.088 44.4855 23.784C43.7815 23.48 43.1575 23.016 42.6135 22.392C42.0855 21.768 41.6695 20.984 41.3655 20.04C41.0775 19.08 40.9335 17.96 40.9335 16.68ZM46.7415 22.464C47.7495 22.464 48.5655 22.144 49.1895 21.504C49.8135 20.848 50.1255 19.84 50.1255 18.48C50.1255 17.392 49.8455 16.528 49.2855 15.888C48.7415 15.248 47.9175 14.928 46.8135 14.928C46.0615 14.928 45.4055 15.088 44.8455 15.408C44.2855 15.712 43.8455 16.104 43.5255 16.584C43.2215 17.064 43.0695 17.56 43.0695 18.072C43.0695 18.6 43.1415 19.12 43.2855 19.632C43.4455 20.144 43.6775 20.616 43.9815 21.048C44.3015 21.48 44.6855 21.824 45.1335 22.08C45.5975 22.336 46.1335 22.464 46.7415 22.464ZM59.4199 24L54.5479 11.136H56.8039L59.5399 18.72C59.6679 19.072 59.8039 19.464 59.9479 19.896C60.0919 20.328 60.2199 20.744 60.3319 21.144C60.4439 21.528 60.5239 21.856 60.5719 22.128H60.6679C60.7319 21.856 60.8199 21.52 60.9319 21.12C61.0599 20.72 61.1959 20.304 61.3399 19.872C61.4999 19.44 61.6359 19.056 61.7479 18.72L64.4839 11.136H66.7399L61.8439 24H59.4199ZM74.8474 10.92C76.4154 10.92 77.5754 11.264 78.3274 11.952C79.0794 12.64 79.4554 13.736 79.4554 15.24V24H77.9194L77.5114 22.176H77.4154C77.0474 22.64 76.6634 23.032 76.2634 23.352C75.8794 23.656 75.4314 23.88 74.9194 24.024C74.4234 24.168 73.8154 24.24 73.0954 24.24C72.3274 24.24 71.6314 24.104 71.0074 23.832C70.3994 23.56 69.9194 23.144 69.5674 22.584C69.2154 22.008 69.0394 21.288 69.0394 20.424C69.0394 19.144 69.5434 18.16 70.5514 17.472C71.5594 16.768 73.1114 16.384 75.2074 16.32L77.3914 16.248V15.48C77.3914 14.408 77.1594 13.664 76.6954 13.248C76.2314 12.832 75.5754 12.624 74.7274 12.624C74.0554 12.624 73.4154 12.728 72.8074 12.936C72.1994 13.128 71.6314 13.352 71.1034 13.608L70.4554 12.024C71.0154 11.72 71.6794 11.464 72.4474 11.256C73.2154 11.032 74.0154 10.92 74.8474 10.92ZM75.4714 17.784C73.8714 17.848 72.7594 18.104 72.1354 18.552C71.5274 19 71.2234 19.632 71.2234 20.448C71.2234 21.168 71.4394 21.696 71.8714 22.032C72.3194 22.368 72.8874 22.536 73.5754 22.536C74.6634 22.536 75.5674 22.24 76.2874 21.648C77.0074 21.04 77.3674 20.112 77.3674 18.864V17.712L75.4714 17.784ZM86.7405 24H84.6285V5.76H86.7405V24ZM94.128 24H92.016V5.76H94.128V24ZM104.372 10.896C105.476 10.896 106.42 11.136 107.204 11.616C108.004 12.096 108.612 12.776 109.028 13.656C109.46 14.52 109.676 15.536 109.676 16.704V17.976H100.868C100.9 19.432 101.268 20.544 101.972 21.312C102.692 22.064 103.692 22.44 104.972 22.44C105.788 22.44 106.508 22.368 107.132 22.224C107.772 22.064 108.428 21.84 109.1 21.552V23.4C108.444 23.688 107.796 23.896 107.156 24.024C106.516 24.168 105.756 24.24 104.876 24.24C103.66 24.24 102.58 23.992 101.636 23.496C100.708 23 99.9795 22.264 99.4515 21.288C98.9395 20.296 98.6835 19.088 98.6835 17.664C98.6835 16.256 98.9155 15.048 99.3795 14.04C99.8595 13.032 100.524 12.256 101.372 11.712C102.236 11.168 103.236 10.896 104.372 10.896ZM104.348 12.624C103.34 12.624 102.54 12.952 101.948 13.608C101.372 14.248 101.028 15.144 100.916 16.296H107.468C107.468 15.56 107.356 14.92 107.132 14.376C106.908 13.832 106.564 13.408 106.1 13.104C105.652 12.784 105.068 12.624 104.348 12.624ZM111.666 11.136H113.922L116.706 18.456C116.866 18.888 117.01 19.304 117.138 19.704C117.282 20.104 117.41 20.496 117.522 20.88C117.634 21.248 117.722 21.608 117.786 21.96H117.882C117.978 21.56 118.13 21.04 118.338 20.4C118.546 19.744 118.762 19.088 118.986 18.432L121.602 11.136H123.882L118.338 25.776C118.034 26.576 117.674 27.272 117.258 27.864C116.858 28.472 116.362 28.936 115.77 29.256C115.194 29.592 114.49 29.76 113.658 29.76C113.274 29.76 112.938 29.736 112.65 29.688C112.362 29.656 112.114 29.616 111.906 29.568V27.888C112.082 27.92 112.29 27.952 112.53 27.984C112.786 28.016 113.05 28.032 113.322 28.032C113.818 28.032 114.242 27.936 114.594 27.744C114.962 27.568 115.274 27.304 115.53 26.952C115.786 26.616 116.002 26.216 116.178 25.752L116.85 24.048L111.666 11.136Z"/>
</mask>
<path d="M40.9335 16.68C40.9335 15.688 40.9975 14.712 41.1255 13.752C41.2695 12.792 41.5095 11.888 41.8455 11.04C42.1815 10.176 42.6455 9.416 43.2375 8.76C43.8295 8.088 44.5735 7.568 45.4695 7.2C46.3815 6.816 47.4855 6.624 48.7815 6.624C49.1175 6.624 49.4855 6.64 49.8855 6.672C50.3015 6.704 50.6375 6.76 50.8935 6.84V8.64C50.6055 8.544 50.2775 8.472 49.9095 8.424C49.5575 8.376 49.1975 8.352 48.8295 8.352C47.7255 8.352 46.8055 8.536 46.0695 8.904C45.3335 9.272 44.7495 9.776 44.3175 10.416C43.9015 11.056 43.5975 11.792 43.4055 12.624C43.2135 13.456 43.0935 14.344 43.0455 15.288H43.1895C43.4295 14.904 43.7335 14.56 44.1015 14.256C44.4695 13.952 44.9095 13.712 45.4215 13.536C45.9495 13.36 46.5575 13.272 47.2455 13.272C48.2375 13.272 49.1015 13.48 49.8375 13.896C50.5895 14.296 51.1735 14.888 51.5895 15.672C52.0055 16.44 52.2135 17.376 52.2135 18.48C52.2135 19.664 51.9895 20.688 51.5415 21.552C51.0935 22.416 50.4615 23.08 49.6455 23.544C48.8455 24.008 47.8855 24.24 46.7655 24.24C45.9495 24.24 45.1895 24.088 44.4855 23.784C43.7815 23.48 43.1575 23.016 42.6135 22.392C42.0855 21.768 41.6695 20.984 41.3655 20.04C41.0775 19.08 40.9335 17.96 40.9335 16.68ZM46.7415 22.464C47.7495 22.464 48.5655 22.144 49.1895 21.504C49.8135 20.848 50.1255 19.84 50.1255 18.48C50.1255 17.392 49.8455 16.528 49.2855 15.888C48.7415 15.248 47.9175 14.928 46.8135 14.928C46.0615 14.928 45.4055 15.088 44.8455 15.408C44.2855 15.712 43.8455 16.104 43.5255 16.584C43.2215 17.064 43.0695 17.56 43.0695 18.072C43.0695 18.6 43.1415 19.12 43.2855 19.632C43.4455 20.144 43.6775 20.616 43.9815 21.048C44.3015 21.48 44.6855 21.824 45.1335 22.08C45.5975 22.336 46.1335 22.464 46.7415 22.464ZM59.4199 24L54.5479 11.136H56.8039L59.5399 18.72C59.6679 19.072 59.8039 19.464 59.9479 19.896C60.0919 20.328 60.2199 20.744 60.3319 21.144C60.4439 21.528 60.5239 21.856 60.5719 22.128H60.6679C60.7319 21.856 60.8199 21.52 60.9319 21.12C61.0599 20.72 61.1959 20.304 61.3399 19.872C61.4999 19.44 61.6359 19.056 61.7479 18.72L64.4839 11.136H66.7399L61.8439 24H59.4199ZM74.8474 10.92C76.4154 10.92 77.5754 11.264 78.3274 11.952C79.0794 12.64 79.4554 13.736 79.4554 15.24V24H77.9194L77.5114 22.176H77.4154C77.0474 22.64 76.6634 23.032 76.2634 23.352C75.8794 23.656 75.4314 23.88 74.9194 24.024C74.4234 24.168 73.8154 24.24 73.0954 24.24C72.3274 24.24 71.6314 24.104 71.0074 23.832C70.3994 23.56 69.9194 23.144 69.5674 22.584C69.2154 22.008 69.0394 21.288 69.0394 20.424C69.0394 19.144 69.5434 18.16 70.5514 17.472C71.5594 16.768 73.1114 16.384 75.2074 16.32L77.3914 16.248V15.48C77.3914 14.408 77.1594 13.664 76.6954 13.248C76.2314 12.832 75.5754 12.624 74.7274 12.624C74.0554 12.624 73.4154 12.728 72.8074 12.936C72.1994 13.128 71.6314 13.352 71.1034 13.608L70.4554 12.024C71.0154 11.72 71.6794 11.464 72.4474 11.256C73.2154 11.032 74.0154 10.92 74.8474 10.92ZM75.4714 17.784C73.8714 17.848 72.7594 18.104 72.1354 18.552C71.5274 19 71.2234 19.632 71.2234 20.448C71.2234 21.168 71.4394 21.696 71.8714 22.032C72.3194 22.368 72.8874 22.536 73.5754 22.536C74.6634 22.536 75.5674 22.24 76.2874 21.648C77.0074 21.04 77.3674 20.112 77.3674 18.864V17.712L75.4714 17.784ZM86.7405 24H84.6285V5.76H86.7405V24ZM94.128 24H92.016V5.76H94.128V24ZM104.372 10.896C105.476 10.896 106.42 11.136 107.204 11.616C108.004 12.096 108.612 12.776 109.028 13.656C109.46 14.52 109.676 15.536 109.676 16.704V17.976H100.868C100.9 19.432 101.268 20.544 101.972 21.312C102.692 22.064 103.692 22.44 104.972 22.44C105.788 22.44 106.508 22.368 107.132 22.224C107.772 22.064 108.428 21.84 109.1 21.552V23.4C108.444 23.688 107.796 23.896 107.156 24.024C106.516 24.168 105.756 24.24 104.876 24.24C103.66 24.24 102.58 23.992 101.636 23.496C100.708 23 99.9795 22.264 99.4515 21.288C98.9395 20.296 98.6835 19.088 98.6835 17.664C98.6835 16.256 98.9155 15.048 99.3795 14.04C99.8595 13.032 100.524 12.256 101.372 11.712C102.236 11.168 103.236 10.896 104.372 10.896ZM104.348 12.624C103.34 12.624 102.54 12.952 101.948 13.608C101.372 14.248 101.028 15.144 100.916 16.296H107.468C107.468 15.56 107.356 14.92 107.132 14.376C106.908 13.832 106.564 13.408 106.1 13.104C105.652 12.784 105.068 12.624 104.348 12.624ZM111.666 11.136H113.922L116.706 18.456C116.866 18.888 117.01 19.304 117.138 19.704C117.282 20.104 117.41 20.496 117.522 20.88C117.634 21.248 117.722 21.608 117.786 21.96H117.882C117.978 21.56 118.13 21.04 118.338 20.4C118.546 19.744 118.762 19.088 118.986 18.432L121.602 11.136H123.882L118.338 25.776C118.034 26.576 117.674 27.272 117.258 27.864C116.858 28.472 116.362 28.936 115.77 29.256C115.194 29.592 114.49 29.76 113.658 29.76C113.274 29.76 112.938 29.736 112.65 29.688C112.362 29.656 112.114 29.616 111.906 29.568V27.888C112.082 27.92 112.29 27.952 112.53 27.984C112.786 28.016 113.05 28.032 113.322 28.032C113.818 28.032 114.242 27.936 114.594 27.744C114.962 27.568 115.274 27.304 115.53 26.952C115.786 26.616 116.002 26.216 116.178 25.752L116.85 24.048L111.666 11.136Z" fill="#1455AC"/>
<path d="M41.1255 13.752L40.5321 13.663L40.5308 13.6727L41.1255 13.752ZM41.8455 11.04L42.4033 11.261L42.4047 11.2575L41.8455 11.04ZM43.2375 8.76L43.683 9.16201L43.6877 9.15662L43.2375 8.76ZM45.4695 7.2L45.6975 7.75503L45.7024 7.75298L45.4695 7.2ZM49.8855 6.672L49.8377 7.27009L49.8395 7.27023L49.8855 6.672ZM50.8935 6.84H51.4935V6.39888L51.0725 6.26731L50.8935 6.84ZM50.8935 8.64L50.7038 9.20921L51.4935 9.47245V8.64H50.8935ZM49.9095 8.424L49.8285 9.01851L49.8319 9.01896L49.9095 8.424ZM46.0695 8.904L46.3379 9.44066L46.0695 8.904ZM44.3175 10.416L43.8201 10.0803L43.8145 10.089L44.3175 10.416ZM43.4055 12.624L42.8209 12.4891L43.4055 12.624ZM43.0455 15.288L42.4463 15.2575L42.4142 15.888H43.0455V15.288ZM43.1895 15.288V15.888H43.5221L43.6983 15.606L43.1895 15.288ZM45.4215 13.536L45.2318 12.9668L45.2265 12.9686L45.4215 13.536ZM49.8375 13.896L49.5423 14.4183L49.549 14.4221L49.5558 14.4257L49.8375 13.896ZM51.5895 15.672L51.0595 15.9532L51.062 15.9578L51.5895 15.672ZM51.5415 21.552L51.0089 21.2758L51.5415 21.552ZM49.6455 23.544L49.3489 23.0224L49.3445 23.025L49.6455 23.544ZM44.4855 23.784L44.7234 23.2332L44.4855 23.784ZM42.6135 22.392L42.1554 22.7796L42.1613 22.7863L42.6135 22.392ZM41.3655 20.04L40.7907 20.2124L40.7944 20.2239L41.3655 20.04ZM49.1895 21.504L49.6192 21.9229L49.6243 21.9175L49.1895 21.504ZM49.2855 15.888L48.8283 16.2766L48.834 16.2831L49.2855 15.888ZM44.8455 15.408L45.1318 15.9354L45.1432 15.9289L44.8455 15.408ZM43.5255 16.584L43.0262 16.2511L43.0186 16.263L43.5255 16.584ZM43.2855 19.632L42.7079 19.7944L42.7103 19.8027L42.7128 19.811L43.2855 19.632ZM43.9815 21.048L43.4908 21.3933L43.495 21.3993L43.4994 21.4051L43.9815 21.048ZM45.1335 22.08L44.8358 22.601L44.8437 22.6053L45.1335 22.08ZM41.5335 16.68C41.5335 15.7139 41.5959 14.7644 41.7203 13.8313L40.5308 13.6727C40.3992 14.6596 40.3335 15.6621 40.3335 16.68H41.5335ZM41.7189 13.841C41.8565 12.9233 42.0852 12.0639 42.4033 11.261L41.2877 10.819C40.9338 11.7121 40.6825 12.6607 40.5322 13.663L41.7189 13.841ZM42.4047 11.2575C42.7156 10.458 43.1421 9.76126 43.683 9.16198L42.7921 8.35802C42.1489 9.07073 41.6474 9.89401 41.2863 10.8225L42.4047 11.2575ZM43.6877 9.15662C44.2139 8.55932 44.8797 8.0909 45.6975 7.75501L45.2416 6.64499C44.2674 7.0451 43.4451 7.61668 42.7873 8.36338L43.6877 9.15662ZM45.7024 7.75298C46.5217 7.40801 47.5419 7.224 48.7815 7.224V6.024C47.4291 6.024 46.2414 6.22399 45.2367 6.64702L45.7024 7.75298ZM48.7815 7.224C49.0989 7.224 49.4507 7.23913 49.8377 7.27009L49.9334 6.07391C49.5204 6.04087 49.1362 6.024 48.7815 6.024V7.224ZM49.8395 7.27023C50.2323 7.30045 50.5187 7.35147 50.7146 7.41269L51.0725 6.26731C50.7564 6.16853 50.3707 6.10755 49.9315 6.07377L49.8395 7.27023ZM50.2935 6.84V8.64H51.4935V6.84H50.2935ZM51.0833 8.07079C50.7518 7.96031 50.3852 7.88096 49.9871 7.82904L49.8319 9.01896C50.1699 9.06304 50.4592 9.12769 50.7038 9.20921L51.0833 8.07079ZM49.9906 7.8295C49.6108 7.77771 49.2237 7.752 48.8295 7.752V8.952C49.1714 8.952 49.5043 8.97429 49.8285 9.0185L49.9906 7.8295ZM48.8295 7.752C47.6627 7.752 46.644 7.94596 45.8012 8.36734L46.3379 9.44066C46.9671 9.12604 47.7883 8.952 48.8295 8.952V7.752ZM45.8012 8.36734C44.9791 8.77838 44.3138 9.34911 43.8202 10.0803L44.8148 10.7517C45.1853 10.2029 45.6879 9.76562 46.3379 9.44066L45.8012 8.36734ZM43.8145 10.089C43.356 10.7943 43.0268 11.5968 42.8209 12.4891L43.9902 12.7589C44.1683 11.9872 44.447 11.3177 44.8206 10.743L43.8145 10.089ZM42.8209 12.4891C42.6202 13.3588 42.4959 14.282 42.4463 15.2575L43.6448 15.3185C43.6912 14.406 43.8069 13.5532 43.9902 12.7589L42.8209 12.4891ZM43.0455 15.888H43.1895V14.688H43.0455V15.888ZM43.6983 15.606C43.9023 15.2796 44.1627 14.9837 44.4837 14.7186L43.7194 13.7934C43.3044 14.1363 42.9567 14.5284 42.6807 14.97L43.6983 15.606ZM44.4837 14.7186C44.7892 14.4662 45.1637 14.2591 45.6166 14.1034L45.2265 12.9686C44.6554 13.1649 44.1499 13.4378 43.7194 13.7934L44.4837 14.7186ZM45.6113 14.1052C46.0656 13.9538 46.6074 13.872 47.2455 13.872V12.672C46.5077 12.672 45.8334 12.7662 45.2318 12.9668L45.6113 14.1052ZM47.2455 13.872C48.1521 13.872 48.9109 14.0614 49.5423 14.4183L50.1328 13.3737C49.2922 12.8986 48.3229 12.672 47.2455 12.672V13.872ZM49.5558 14.4257C50.1975 14.7671 50.6971 15.2703 51.0595 15.9532L52.1195 15.3908C51.6499 14.5057 50.9816 13.8249 50.1193 13.3663L49.5558 14.4257ZM51.062 15.9578C51.4195 16.6178 51.6135 17.45 51.6135 18.48H52.8135C52.8135 17.302 52.5916 16.2622 52.1171 15.3862L51.062 15.9578ZM51.6135 18.48C51.6135 19.5884 51.404 20.5137 51.0089 21.2758L52.0742 21.8282C52.575 20.8623 52.8135 19.7396 52.8135 18.48H51.6135ZM51.0089 21.2758C50.6121 22.0409 50.0604 22.6179 49.3489 23.0224L49.9421 24.0656C50.8627 23.5421 51.5749 22.7911 52.0742 21.8282L51.0089 21.2758ZM49.3445 23.025C48.6535 23.4258 47.8021 23.64 46.7655 23.64V24.84C47.969 24.84 49.0376 24.5902 49.9466 24.063L49.3445 23.025ZM46.7655 23.64C46.026 23.64 45.3475 23.5027 44.7234 23.2332L44.2477 24.3348C45.0315 24.6733 45.873 24.84 46.7655 24.84V23.64ZM44.7234 23.2332C44.1081 22.9675 43.5557 22.5596 43.0658 21.9977L42.1613 22.7863C42.7594 23.4724 43.455 23.9925 44.2477 24.3348L44.7234 23.2332ZM43.0716 22.0044C42.6038 21.4516 42.2216 20.741 41.9366 19.8561L40.7944 20.2239C41.1174 21.227 41.5673 22.0844 42.1555 22.7796L43.0716 22.0044ZM41.9402 19.8676C41.6729 18.9765 41.5335 17.9169 41.5335 16.68H40.3335C40.3335 18.0031 40.4822 19.1835 40.7908 20.2124L41.9402 19.8676ZM46.7415 23.064C47.8887 23.064 48.8673 22.6939 49.6191 21.9229L48.7599 21.0851C48.2637 21.5941 47.6104 21.864 46.7415 21.864V23.064ZM49.6243 21.9175C50.3971 21.1051 50.7255 19.9182 50.7255 18.48H49.5255C49.5255 19.7618 49.23 20.5909 48.7548 21.0905L49.6243 21.9175ZM50.7255 18.48C50.7255 17.2884 50.4171 16.27 49.7371 15.4929L48.834 16.2831C49.274 16.786 49.5255 17.4956 49.5255 18.48H50.7255ZM49.7427 15.4994C49.0513 14.6861 48.0345 14.328 46.8135 14.328V15.528C47.8005 15.528 48.4317 15.8099 48.8284 16.2766L49.7427 15.4994ZM46.8135 14.328C45.9746 14.328 45.2126 14.5072 44.5478 14.8871L45.1432 15.9289C45.5985 15.6688 46.1485 15.528 46.8135 15.528V14.328ZM44.5593 14.8807C43.9226 15.2263 43.4059 15.6818 43.0263 16.2512L44.0248 16.9168C44.2852 16.5262 44.6484 16.1977 45.1318 15.9353L44.5593 14.8807ZM43.0186 16.263C42.6607 16.8281 42.4695 17.4341 42.4695 18.072H43.6695C43.6695 17.6859 43.7823 17.2999 44.0324 16.905L43.0186 16.263ZM42.4695 18.072C42.4695 18.6553 42.5492 19.23 42.7079 19.7944L43.8631 19.4696C43.7339 19.01 43.6695 18.5447 43.6695 18.072H42.4695ZM42.7128 19.811C42.8911 20.3814 43.1505 20.9096 43.4908 21.3933L44.4722 20.7027C44.2046 20.3224 44 19.9066 43.8582 19.453L42.7128 19.811ZM43.4994 21.4051C43.8667 21.9011 44.3126 22.302 44.8358 22.6009L45.4312 21.5591C45.0584 21.346 44.7363 21.0589 44.4637 20.6909L43.4994 21.4051ZM44.8437 22.6053C45.4088 22.9171 46.0472 23.064 46.7415 23.064V21.864C46.2198 21.864 45.7863 21.7549 45.4234 21.5547L44.8437 22.6053ZM59.4199 24L58.8588 24.2125L59.0055 24.6H59.4199V24ZM54.5479 11.136V10.536H53.6791L53.9868 11.3485L54.5479 11.136ZM56.8039 11.136L57.3683 10.9324L57.2253 10.536H56.8039V11.136ZM59.5399 18.72L58.9755 18.9236L58.976 18.925L59.5399 18.72ZM59.9479 19.896L59.3787 20.0857L59.9479 19.896ZM60.3319 21.144L59.7541 21.3058L59.7559 21.312L60.3319 21.144ZM60.5719 22.128L59.981 22.2323L60.0685 22.728H60.5719V22.128ZM60.6679 22.128V22.728H61.1431L61.252 22.2654L60.6679 22.128ZM60.9319 21.12L60.3604 20.9371L60.3571 20.9476L60.3541 20.9582L60.9319 21.12ZM61.3399 19.872L60.7773 19.6636L60.7738 19.6729L60.7707 19.6823L61.3399 19.872ZM61.7479 18.72L61.1835 18.5164L61.181 18.5233L61.1787 18.5303L61.7479 18.72ZM64.4839 11.136V10.536H64.0625L63.9195 10.9324L64.4839 11.136ZM66.7399 11.136L67.3007 11.3494L67.6102 10.536H66.7399V11.136ZM61.8439 24V24.6H62.2575L62.4047 24.2134L61.8439 24ZM59.981 23.7875L55.109 10.9235L53.9868 11.3485L58.8588 24.2125L59.981 23.7875ZM54.5479 11.736H56.8039V10.536H54.5479V11.736ZM56.2395 11.3396L58.9755 18.9236L60.1043 18.5164L57.3683 10.9324L56.2395 11.3396ZM58.976 18.925C59.1018 19.271 59.236 19.6578 59.3787 20.0857L60.5171 19.7063C60.3717 19.2702 60.234 18.873 60.1038 18.515L58.976 18.925ZM59.3787 20.0857C59.5199 20.5094 59.645 20.916 59.7541 21.3058L60.9097 20.9822C60.7948 20.572 60.6639 20.1466 60.5171 19.7063L59.3787 20.0857ZM59.7559 21.312C59.8642 21.6834 59.9381 21.9889 59.981 22.2323L61.1628 22.0237C61.1097 21.7231 61.0236 21.3726 60.9079 20.976L59.7559 21.312ZM60.5719 22.728H60.6679V21.528H60.5719V22.728ZM61.252 22.2654C61.3134 22.0045 61.399 21.6772 61.5097 21.2818L60.3541 20.9582C60.2408 21.3628 60.1504 21.7075 60.0839 21.9906L61.252 22.2654ZM61.5034 21.3029C61.6306 20.9053 61.7658 20.4916 61.9091 20.0617L60.7707 19.6823C60.626 20.1164 60.4892 20.5347 60.3604 20.9371L61.5034 21.3029ZM61.9025 20.0804C62.0642 19.6439 62.2025 19.2535 62.3171 18.9097L61.1787 18.5303C61.0693 18.8585 60.9356 19.2361 60.7773 19.6636L61.9025 20.0804ZM62.3123 18.9236L65.0483 11.3396L63.9195 10.9324L61.1835 18.5164L62.3123 18.9236ZM64.4839 11.736H66.7399V10.536H64.4839V11.736ZM66.1791 10.9226L61.2831 23.7866L62.4047 24.2134L67.3007 11.3494L66.1791 10.9226ZM61.8439 23.4H59.4199V24.6H61.8439V23.4ZM78.3274 11.952L78.7324 11.5093V11.5093L78.3274 11.952ZM79.4554 24V24.6H80.0554V24H79.4554ZM77.9194 24L77.3339 24.131L77.4388 24.6H77.9194V24ZM77.5114 22.176L78.0969 22.045L77.992 21.576H77.5114V22.176ZM77.4154 22.176V21.576H77.1255L76.9453 21.8032L77.4154 22.176ZM76.2634 23.352L76.6358 23.8224L76.6382 23.8205L76.2634 23.352ZM74.9194 24.024L74.7569 23.4464L74.7521 23.4478L74.9194 24.024ZM71.0074 23.832L70.7624 24.3797L70.7676 24.382L71.0074 23.832ZM69.5674 22.584L69.0554 22.8969L69.0594 22.9033L69.5674 22.584ZM70.5514 17.472L70.8897 17.9676L70.895 17.9639L70.5514 17.472ZM75.2074 16.32L75.2257 16.9197L75.2272 16.9197L75.2074 16.32ZM77.3914 16.248L77.4112 16.8477L77.9914 16.8285V16.248H77.3914ZM76.6954 13.248L76.2949 13.6947L76.6954 13.248ZM72.8074 12.936L72.9881 13.5081L72.9949 13.506L73.0016 13.5037L72.8074 12.936ZM71.1034 13.608L70.5481 13.8352L70.7901 14.4267L71.3652 14.1479L71.1034 13.608ZM70.4554 12.024L70.1691 11.4967L69.6964 11.7533L69.9001 12.2512L70.4554 12.024ZM72.4474 11.256L72.6043 11.8352L72.6154 11.832L72.4474 11.256ZM75.4714 17.784L75.4486 17.1844L75.4474 17.1845L75.4714 17.784ZM72.1354 18.552L71.7854 18.0646L71.7795 18.069L72.1354 18.552ZM71.8714 22.032L71.503 22.5057L71.5114 22.512L71.8714 22.032ZM76.2874 21.648L76.6685 22.1115L76.6745 22.1064L76.2874 21.648ZM77.3674 17.712H77.9674V17.0888L77.3446 17.1124L77.3674 17.712ZM74.8474 11.52C76.3434 11.52 77.3275 11.8504 77.9224 12.3947L78.7324 11.5093C77.8233 10.6776 76.4874 10.32 74.8474 10.32V11.52ZM77.9224 12.3947C78.501 12.924 78.8554 13.8236 78.8554 15.24H80.0554C80.0554 13.6484 79.6578 12.356 78.7324 11.5093L77.9224 12.3947ZM78.8554 15.24V24H80.0554V15.24H78.8554ZM79.4554 23.4H77.9194V24.6H79.4554V23.4ZM78.5049 23.869L78.0969 22.045L76.9259 22.307L77.3339 24.131L78.5049 23.869ZM77.5114 21.576H77.4154V22.776H77.5114V21.576ZM76.9453 21.8032C76.6011 22.2371 76.2484 22.5957 75.8886 22.8835L76.6382 23.8205C77.0784 23.4683 77.4937 23.0429 77.8855 22.5488L76.9453 21.8032ZM75.891 22.8816C75.5744 23.1322 75.1992 23.322 74.757 23.4464L75.0818 24.6016C75.6636 24.438 76.1844 24.1798 76.6358 23.8224L75.891 22.8816ZM74.7521 23.4478C74.3271 23.5712 73.7793 23.64 73.0954 23.64V24.84C73.8515 24.84 74.5197 24.7648 75.0867 24.6002L74.7521 23.4478ZM73.0954 23.64C72.3993 23.64 71.7864 23.517 71.2472 23.282L70.7676 24.382C71.4764 24.691 72.2555 24.84 73.0954 24.84V23.64ZM71.2524 23.2843C70.7519 23.0604 70.3638 22.7235 70.0754 22.2647L69.0594 22.9033C69.475 23.5645 70.0469 24.0596 70.7624 24.3797L71.2524 23.2843ZM70.0794 22.2711C69.799 21.8123 69.6394 21.208 69.6394 20.424H68.4394C68.4394 21.368 68.6318 22.2037 69.0554 22.8969L70.0794 22.2711ZM69.6394 20.424C69.6394 19.3308 70.0547 18.5374 70.8896 17.9676L70.2132 16.9764C69.0321 17.7826 68.4394 18.9572 68.4394 20.424H69.6394ZM70.895 17.9639C71.7612 17.3589 73.1733 16.9824 75.2257 16.9197L75.1891 15.7203C73.0495 15.7856 71.3576 16.1771 70.2078 16.9801L70.895 17.9639ZM75.2272 16.9197L77.4112 16.8477L77.3716 15.6483L75.1876 15.7203L75.2272 16.9197ZM77.9914 16.248V15.48H76.7914V16.248H77.9914ZM77.9914 15.48C77.9914 14.3539 77.7534 13.3907 77.0959 12.8013L76.2949 13.6947C76.5654 13.9373 76.7914 14.4621 76.7914 15.48H77.9914ZM77.0959 12.8013C76.4875 12.2557 75.6694 12.024 74.7274 12.024V13.224C75.4814 13.224 75.9753 13.4083 76.2949 13.6947L77.0959 12.8013ZM74.7274 12.024C73.9924 12.024 73.2865 12.1379 72.6132 12.3683L73.0016 13.5037C73.5443 13.3181 74.1184 13.224 74.7274 13.224V12.024ZM72.6267 12.3638C71.9933 12.5639 71.398 12.7984 70.8416 13.0681L71.3652 14.1479C71.8648 13.9056 72.4055 13.6921 72.9881 13.5081L72.6267 12.3638ZM71.6587 13.3808L71.0107 11.7968L69.9001 12.2512L70.5481 13.8352L71.6587 13.3808ZM70.7417 12.5513C71.252 12.2743 71.8706 12.0338 72.6042 11.8351L72.2906 10.6769C71.4882 10.8942 70.7788 11.1657 70.1691 11.4967L70.7417 12.5513ZM72.6154 11.832C73.3267 11.6245 74.07 11.52 74.8474 11.52V10.32C73.9608 10.32 73.1041 10.4395 72.2794 10.68L72.6154 11.832ZM75.4474 17.1845C73.833 17.2491 72.5635 17.506 71.7855 18.0646L72.4853 19.0394C72.9553 18.702 73.9098 18.4469 75.4954 18.3835L75.4474 17.1845ZM71.7795 18.069C71.0042 18.6402 70.6234 19.4592 70.6234 20.448H71.8234C71.8234 19.8048 72.0506 19.3598 72.4913 19.035L71.7795 18.069ZM70.6234 20.448C70.6234 21.2899 70.8813 22.022 71.503 22.5056L72.2398 21.5584C71.9975 21.37 71.8234 21.0461 71.8234 20.448H70.6234ZM71.5114 22.512C72.0851 22.9423 72.7879 23.136 73.5754 23.136V21.936C72.9869 21.936 72.5537 21.7937 72.2314 21.552L71.5114 22.512ZM73.5754 23.136C74.778 23.136 75.8237 22.8061 76.6685 22.1115L75.9063 21.1845C75.3111 21.6739 74.5488 21.936 73.5754 21.936V23.136ZM76.6745 22.1064C77.5701 21.3502 77.9674 20.2277 77.9674 18.864H76.7674C76.7674 19.9963 76.4447 20.7298 75.9003 21.1896L76.6745 22.1064ZM77.9674 18.864V17.712H76.7674V18.864H77.9674ZM77.3446 17.1124L75.4486 17.1844L75.4942 18.3836L77.3902 18.3116L77.3446 17.1124ZM86.7405 24V24.6H87.3405V24H86.7405ZM84.6285 24H84.0285V24.6H84.6285V24ZM84.6285 5.76V5.16H84.0285V5.76H84.6285ZM86.7405 5.76H87.3405V5.16H86.7405V5.76ZM86.7405 23.4H84.6285V24.6H86.7405V23.4ZM85.2285 24V5.76H84.0285V24H85.2285ZM84.6285 6.36H86.7405V5.16H84.6285V6.36ZM86.1405 5.76V24H87.3405V5.76H86.1405ZM94.128 24V24.6H94.728V24H94.128ZM92.016 24H91.416V24.6H92.016V24ZM92.016 5.76V5.16H91.416V5.76H92.016ZM94.128 5.76H94.728V5.16H94.128V5.76ZM94.128 23.4H92.016V24.6H94.128V23.4ZM92.616 24V5.76H91.416V24H92.616ZM92.016 6.36H94.128V5.16H92.016V6.36ZM93.528 5.76V24H94.728V5.76H93.528ZM107.204 11.616L106.89 12.1277L106.895 12.1305L107.204 11.616ZM109.028 13.656L108.485 13.9125L108.491 13.9243L109.028 13.656ZM109.676 17.976V18.576H110.276V17.976H109.676ZM100.868 17.976V17.376H100.254L100.268 17.9892L100.868 17.976ZM101.972 21.312L101.529 21.7175L101.538 21.7269L101.972 21.312ZM107.132 22.224L107.266 22.8087L107.277 22.8061L107.132 22.224ZM109.1 21.552H109.7V20.6421L108.863 21.0005L109.1 21.552ZM109.1 23.4L109.341 23.9494L109.7 23.7919V23.4H109.1ZM107.156 24.024L107.038 23.4357L107.031 23.4371L107.024 23.4386L107.156 24.024ZM101.636 23.496L101.353 24.0252L101.356 24.0271L101.636 23.496ZM99.4515 21.288L98.9183 21.5632L98.9238 21.5735L99.4515 21.288ZM99.3795 14.04L98.8378 13.782L98.8345 13.7891L99.3795 14.04ZM101.372 11.712L101.052 11.2042L101.048 11.207L101.372 11.712ZM101.948 13.608L101.502 13.206L101.502 13.2066L101.948 13.608ZM100.916 16.296L100.318 16.2379L100.254 16.896H100.916V16.296ZM107.468 16.296V16.896H108.068V16.296H107.468ZM107.132 14.376L106.577 14.6044L107.132 14.376ZM106.1 13.104L105.751 13.5922L105.761 13.5993L105.771 13.6059L106.1 13.104ZM104.372 11.496C105.387 11.496 106.218 11.7161 106.89 12.1277L107.517 11.1043C106.621 10.5559 105.564 10.296 104.372 10.296V11.496ZM106.895 12.1305C107.589 12.5467 108.117 13.1348 108.485 13.9124L109.57 13.3996C109.106 12.4172 108.418 11.6453 107.512 11.1015L106.895 12.1305ZM108.491 13.9243C108.873 14.6894 109.076 15.6099 109.076 16.704H110.276C110.276 15.4621 110.046 14.3506 109.564 13.3877L108.491 13.9243ZM109.076 16.704V17.976H110.276V16.704H109.076ZM109.676 17.376H100.868V18.576H109.676V17.376ZM100.268 17.9892C100.302 19.533 100.694 20.8061 101.529 21.7174L102.414 20.9066C101.841 20.2819 101.497 19.331 101.467 17.9628L100.268 17.9892ZM101.538 21.7269C102.396 22.6233 103.568 23.04 104.972 23.04V21.84C103.815 21.84 102.987 21.5047 102.405 20.8971L101.538 21.7269ZM104.972 23.04C105.821 23.04 106.588 22.9652 107.266 22.8086L106.997 21.6394C106.427 21.7708 105.754 21.84 104.972 21.84V23.04ZM107.277 22.8061C107.951 22.6375 108.638 22.4028 109.336 22.1035L108.863 21.0005C108.217 21.2772 107.592 21.4905 106.986 21.6419L107.277 22.8061ZM108.5 21.552V23.4H109.7V21.552H108.5ZM108.858 22.8506C108.238 23.1229 107.632 23.3169 107.038 23.4357L107.273 24.6123C107.96 24.4751 108.649 24.2531 109.341 23.9494L108.858 22.8506ZM107.024 23.4386C106.439 23.5703 105.725 23.64 104.876 23.64V24.84C105.786 24.84 106.592 24.7657 107.287 24.6094L107.024 23.4386ZM104.876 23.64C103.743 23.64 102.761 23.4096 101.915 22.9649L101.356 24.0271C102.398 24.5744 103.576 24.84 104.876 24.84V23.64ZM101.918 22.9668C101.1 22.5294 100.454 21.881 99.9793 21.0025L98.9238 21.5735C99.5046 22.647 100.315 23.4706 101.353 24.0252L101.918 22.9668ZM99.9847 21.0128C99.527 20.1261 99.2835 19.0179 99.2835 17.664H98.0835C98.0835 19.1581 98.352 20.4659 98.9184 21.5632L99.9847 21.0128ZM99.2835 17.664C99.2835 16.3201 99.5051 15.202 99.9246 14.2909L98.8345 13.7891C98.3259 14.894 98.0835 16.1919 98.0835 17.664H99.2835ZM99.9212 14.298C100.358 13.3797 100.952 12.6942 101.695 12.217L101.048 11.207C100.095 11.8178 99.3606 12.6843 98.8378 13.782L99.9212 14.298ZM101.691 12.2197C102.449 11.7427 103.336 11.496 104.372 11.496V10.296C103.136 10.296 102.022 10.5933 101.052 11.2043L101.691 12.2197ZM104.348 12.024C103.196 12.024 102.224 12.4056 101.502 13.206L102.393 14.01C102.855 13.4984 103.483 13.224 104.348 13.224V12.024ZM101.502 13.2066C100.815 13.97 100.439 15.0017 100.318 16.2379L101.513 16.3541C101.617 15.2863 101.929 14.526 102.394 14.0094L101.502 13.2066ZM100.916 16.896H107.468V15.696H100.916V16.896ZM108.068 16.296C108.068 15.5006 107.947 14.7797 107.686 14.1475L106.577 14.6044C106.764 15.0603 106.868 15.6194 106.868 16.296H108.068ZM107.686 14.1475C107.419 13.4989 107 12.9765 106.428 12.6021L105.771 13.6059C106.127 13.8395 106.396 14.1651 106.577 14.6044L107.686 14.1475ZM106.448 12.6158C105.871 12.2036 105.154 12.024 104.348 12.024V13.224C104.981 13.224 105.432 13.3644 105.751 13.5922L106.448 12.6158ZM111.666 11.136V10.536H110.778L111.109 11.3595L111.666 11.136ZM113.922 11.136L114.482 10.9227L114.335 10.536H113.922V11.136ZM116.706 18.456L117.268 18.2476L117.266 18.2427L116.706 18.456ZM117.138 19.704L116.566 19.8869L116.569 19.8971L116.573 19.9072L117.138 19.704ZM117.522 20.88L116.946 21.048L116.948 21.0547L117.522 20.88ZM117.786 21.96L117.195 22.0673L117.285 22.56H117.786V21.96ZM117.882 21.96V22.56H118.355L118.465 22.1L117.882 21.96ZM118.338 20.4L118.908 20.5855L118.91 20.5813L118.338 20.4ZM118.986 18.432L118.421 18.2295L118.418 18.2381L118.986 18.432ZM121.602 11.136V10.536H121.179L121.037 10.9335L121.602 11.136ZM123.882 11.136L124.443 11.3485L124.75 10.536H123.882V11.136ZM118.338 25.776L118.899 25.9891L118.899 25.9885L118.338 25.776ZM117.258 27.864L116.767 27.519L116.761 27.5266L116.756 27.5342L117.258 27.864ZM115.77 29.256L115.484 28.7282L115.476 28.7328L115.467 28.7377L115.77 29.256ZM112.65 29.688L112.748 29.0962L112.732 29.0935L112.716 29.0917L112.65 29.688ZM111.906 29.568H111.306V30.0453L111.771 30.1526L111.906 29.568ZM111.906 27.888L112.013 27.2977L111.306 27.1691V27.888H111.906ZM112.53 27.984L112.45 28.5788L112.455 28.5794L112.53 27.984ZM114.594 27.744L114.335 27.2027L114.32 27.2096L114.306 27.2173L114.594 27.744ZM115.53 26.952L115.052 26.5883L115.044 26.5991L115.53 26.952ZM116.178 25.752L115.619 25.5319L115.617 25.5392L116.178 25.752ZM116.85 24.048L117.408 24.2681L117.495 24.046L117.406 23.8245L116.85 24.048ZM111.666 11.736H113.922V10.536H111.666V11.736ZM113.361 11.3493L116.145 18.6693L117.266 18.2427L114.482 10.9227L113.361 11.3493ZM116.143 18.6644C116.3 19.0887 116.441 19.4962 116.566 19.8869L117.709 19.5211C117.578 19.1118 117.431 18.6873 117.268 18.2476L116.143 18.6644ZM116.573 19.9072C116.713 20.2963 116.837 20.6766 116.946 21.048L118.098 20.712C117.982 20.3154 117.85 19.9117 117.702 19.5008L116.573 19.9072ZM116.948 21.0547C117.053 21.4022 117.136 21.7397 117.195 22.0673L118.376 21.8527C118.308 21.4763 118.214 21.0938 118.096 20.7053L116.948 21.0547ZM117.786 22.56H117.882V21.36H117.786V22.56ZM118.465 22.1C118.556 21.7218 118.702 21.2186 118.908 20.5855L117.767 20.2145C117.557 20.8614 117.399 21.3982 117.298 21.82L118.465 22.1ZM118.91 20.5813C119.116 19.9296 119.331 19.2778 119.553 18.6259L118.418 18.2381C118.192 18.8982 117.975 19.5584 117.766 20.2187L118.91 20.5813ZM119.55 18.6345L122.166 11.3385L121.037 10.9335L118.421 18.2295L119.55 18.6345ZM121.602 11.736H123.882V10.536H121.602V11.736ZM123.321 10.9235L117.777 25.5635L118.899 25.9885L124.443 11.3485L123.321 10.9235ZM117.777 25.5629C117.487 26.3244 117.149 26.9745 116.767 27.519L117.749 28.209C118.198 27.5695 118.58 26.8276 118.899 25.9891L117.777 25.5629ZM116.756 27.5342C116.406 28.0663 115.982 28.4591 115.484 28.7282L116.055 29.7838C116.741 29.4129 117.309 28.8777 117.759 28.1938L116.756 27.5342ZM115.467 28.7377C115.003 29.0085 114.409 29.16 113.658 29.16V30.36C114.57 30.36 115.384 30.1755 116.072 29.7743L115.467 28.7377ZM113.658 29.16C113.297 29.16 112.995 29.1373 112.748 29.0962L112.551 30.2798C112.88 30.3347 113.25 30.36 113.658 30.36V29.16ZM112.716 29.0917C112.443 29.0614 112.22 29.0247 112.041 28.9834L111.771 30.1526C112.008 30.2073 112.28 30.2506 112.583 30.2843L112.716 29.0917ZM112.506 29.568V27.888H111.306V29.568H112.506ZM111.798 28.4783C111.986 28.5125 112.204 28.5459 112.45 28.5787L112.609 27.3893C112.375 27.3581 112.177 27.3275 112.013 27.2977L111.798 28.4783ZM112.455 28.5794C112.737 28.6146 113.026 28.632 113.322 28.632V27.432C113.073 27.432 112.834 27.4174 112.604 27.3886L112.455 28.5794ZM113.322 28.632C113.895 28.632 114.422 28.5209 114.881 28.2707L114.306 27.2173C114.061 27.3511 113.741 27.432 113.322 27.432V28.632ZM114.853 28.2853C115.316 28.0634 115.704 27.732 116.015 27.3049L115.044 26.5991C114.843 26.876 114.607 27.0726 114.335 27.2027L114.853 28.2853ZM116.007 27.3156C116.303 26.9264 116.546 26.4737 116.739 25.9648L115.617 25.5392C115.458 25.9583 115.268 26.3056 115.052 26.5884L116.007 27.3156ZM116.736 25.9721L117.408 24.2681L116.291 23.8279L115.619 25.5319L116.736 25.9721ZM117.406 23.8245L112.222 10.9125L111.109 11.3595L116.293 24.2715L117.406 23.8245Z" fill="#1455AC" mask="url(#path-6-outside-1_2_288)"/>
<defs>
<linearGradient id="paint0_linear_2_288" x1="16.801" y1="-0.728351" x2="16.801" y2="28.0925" gradientUnits="userSpaceOnUse">
<stop stop-color="#75A8EC"/>
<stop offset="1" stop-color="#1455AC"/>
</linearGradient>
<linearGradient id="paint1_linear_2_288" x1="29.5949" y1="-0.728765" x2="29.5949" y2="28.0923" gradientUnits="userSpaceOnUse">
<stop stop-color="#81E4FB"/>
<stop offset="1" stop-color="#2F5291"/>
</linearGradient>
<linearGradient id="paint2_linear_2_288" x1="3.50956" y1="-0.728018" x2="3.50956" y2="28.0923" gradientUnits="userSpaceOnUse">
<stop stop-color="#81E4FB"/>
<stop offset="1" stop-color="#2F5291"/>
</linearGradient>
<linearGradient id="paint3_linear_2_288" x1="28.4074" y1="-0.728041" x2="28.4074" y2="28.0928" gradientUnits="userSpaceOnUse">
<stop stop-color="#81E4FB"/>
<stop offset="1" stop-color="#2F5291"/>
</linearGradient>
</defs>
</svg>
