<svg width="14" height="10" viewBox="0 0 14 10" fill="none" xmlns="http://www.w3.org/2000/svg">
<path d="M1 9.5C0.7875 9.5 0.6095 9.428 0.466 9.284C0.322 9.1405 0.25 8.9625 0.25 8.75C0.25 8.5375 0.322 8.3595 0.466 8.216C0.6095 8.072 0.7875 8 1 8H13C13.2125 8 13.3905 8.072 13.534 8.216C13.678 8.3595 13.75 8.5375 13.75 8.75C13.75 8.9625 13.678 9.1405 13.534 9.284C13.3905 9.428 13.2125 9.5 13 9.5H1ZM1 5.75C0.7875 5.75 0.6095 5.678 0.466 5.534C0.322 5.3905 0.25 5.2125 0.25 5C0.25 4.7875 0.322 4.60925 0.466 4.46525C0.6095 4.32175 0.7875 4.25 1 4.25H13C13.2125 4.25 13.3905 4.32175 13.534 4.46525C13.678 4.60925 13.75 4.7875 13.75 5C13.75 5.2125 13.678 5.3905 13.534 5.534C13.3905 5.678 13.2125 5.75 13 5.75H1ZM1 2C0.7875 2 0.6095 1.92825 0.466 1.78475C0.322 1.64075 0.25 1.4625 0.25 1.25C0.25 1.0375 0.322 0.85925 0.466 0.71525C0.6095 0.57175 0.7875 0.5 1 0.5H13C13.2125 0.5 13.3905 0.57175 13.534 0.71525C13.678 0.85925 13.75 1.0375 13.75 1.25C13.75 1.4625 13.678 1.64075 13.534 1.78475C13.3905 1.92825 13.2125 2 13 2H1Z" fill="white"/>
</svg>
