<svg width="16" height="15" viewBox="0 0 16 15" fill="none" xmlns="http://www.w3.org/2000/svg">
<path fill-rule="evenodd" clip-rule="evenodd" d="M6.94792 0.436002L5.81792 1.565C5.72667 1.65628 5.60298 1.7077 5.47392 1.708H3.69592C2.87392 1.708 2.20792 2.374 2.20792 3.196V4.974C2.20766 5.10337 2.15626 5.22739 2.06492 5.319L0.934918 6.448C0.655971 6.72704 0.499268 7.10545 0.499268 7.5C0.499268 7.89456 0.655971 8.27296 0.934918 8.552L2.06492 9.682C2.1562 9.77325 2.20762 9.89694 2.20792 10.026V11.804C2.20792 12.626 2.87392 13.292 3.69592 13.292H5.47392C5.60329 13.2923 5.7273 13.3437 5.81892 13.435L6.94792 14.565C7.22696 14.8439 7.60536 15.0007 7.99992 15.0007C8.39447 15.0007 8.77288 14.8439 9.05192 14.565L10.1819 13.435C10.2732 13.3437 10.3969 13.2923 10.5259 13.292H12.3039C13.1259 13.292 13.7919 12.626 13.7919 11.804V10.026C13.7922 9.89663 13.8436 9.77262 13.9349 9.681L15.0649 8.552C15.3439 8.27296 15.5006 7.89456 15.5006 7.5C15.5006 7.10545 15.3439 6.72704 15.0649 6.448L13.9349 5.318C13.8436 5.22676 13.7922 5.10307 13.7919 4.974V3.196C13.7919 2.374 13.1259 1.708 12.3039 1.708H10.5259C10.3965 1.70797 10.2724 1.65653 10.1809 1.565L9.05192 0.435002C8.77288 0.156055 8.39447 -0.000648499 7.99992 -0.000648499C7.60536 -0.000648499 7.22696 0.157055 6.94792 0.436002ZM5.14592 9.646L10.1459 4.646L10.8539 5.354L5.85392 10.354L5.14592 9.646ZM5.49992 5V6H6.49992V5H5.49992ZM9.49992 10H10.4999V9H9.49992V10Z" fill="#FFBE00"/>
</svg>
