<svg width="83" height="66" viewBox="0 0 83 66" fill="none" xmlns="http://www.w3.org/2000/svg">
<path d="M73.0955 29.7178L20.597 34.3108C19.5319 34.404 18.5944 33.6173 18.5012 32.5522L17.3094 18.9292C17.2162 17.8641 18.0029 16.9266 19.0679 16.8334L76.7371 11.788C78.0855 11.67 79.1361 12.9389 78.7681 14.2408L74.7913 28.3159C74.5715 29.0905 73.8973 29.6476 73.0955 29.7178Z" fill="#F8F8F8"/>
<g filter="url(#filter0_d_2_172)">
<path d="M72.6935 29.7529L20.195 34.3459C19.13 34.4391 18.1924 33.6524 18.0992 32.5874L16.9074 18.9644C16.8142 17.8993 17.6009 16.9617 18.666 16.8686L76.3351 11.8232C77.6835 11.7052 78.7341 12.9741 78.3661 14.2759L74.3893 28.3511C74.1695 29.1256 73.4953 29.6828 72.6935 29.7529Z" fill="white"/>
</g>
<path d="M67.5656 49.8337L13.1399 54.5953L20.4022 37.3835C20.6806 36.7233 21.3011 36.2701 22.0165 36.2075L71.2072 31.9039C72.5556 31.7859 73.6062 33.0548 73.2382 34.3567L69.2614 48.4319C69.0416 49.2064 68.3674 49.7635 67.5656 49.8337Z" fill="#F8F8F8"/>
<g filter="url(#filter1_d_2_172)">
<path d="M67.1636 49.8688L12.7379 54.6305L20.0002 37.4187C20.2786 36.7585 20.8991 36.3053 21.6145 36.2427L70.8052 31.9391C72.1536 31.8211 73.2042 33.09 72.8362 34.3918L68.8594 48.467C68.6396 49.2416 67.9654 49.7987 67.1636 49.8688Z" fill="white"/>
</g>
<path d="M16.3528 8.95878L7.13849 38.9245L14.3007 38.2979L6.29145 65.5581L30.675 24.1607L22.063 25.8294L32.0415 5.13193L16.3528 8.95878Z" fill="#E6E6E6"/>
<path d="M15.6971 8.40873L6.48285 38.3744L13.645 37.7478L5.63581 65.008L30.0193 23.6106L21.4073 25.2793L31.3859 4.58188L15.6971 8.40873Z" fill="#FEFE01"/>
<path d="M24.3653 6.29364L13.899 31.8552L20.8304 30.7669L5.63581 65.008L30.0193 23.6106L21.4073 25.2793L31.3859 4.58188L24.3653 6.29364Z" fill="#FDB603"/>
<g filter="url(#filter2_d_2_172)">
<path d="M35.6859 20.8145L35.3873 23.2732L38.156 23.031L37.9744 24.3807L35.2233 24.6214L34.8017 28.0839L33.0983 28.2329L34.1465 19.6154L39.1454 19.178L38.9756 20.5267L35.6859 20.8145ZM44.1644 25.884L43.9946 27.2796L39.3177 27.6888L40.3658 19.0713L42.0575 18.9233L41.1792 26.1451L44.1644 25.884ZM49.577 23.5654L49.0737 20.9124C49.0464 20.7738 49.0152 20.61 48.9801 20.4212C48.945 20.2323 48.9118 20.0276 48.8806 19.807C48.7948 20.0378 48.7108 20.2528 48.6289 20.4519C48.5469 20.651 48.4747 20.8258 48.4123 20.9762L47.259 23.7682L49.577 23.5654ZM51.93 26.5854L50.6188 26.7001C50.4705 26.7131 50.3554 26.6879 50.2734 26.6245C50.1915 26.5612 50.1349 26.4741 50.1037 26.3632L49.7935 24.7275L46.7556 24.9933L46.0414 26.7186C45.9906 26.8249 45.9126 26.9218 45.8072 27.0094C45.7019 27.0931 45.5809 27.1409 45.4443 27.1528L44.1097 27.2696L48.1958 18.3862L49.9285 18.2346L51.93 26.5854ZM57.7479 19.1664C57.6855 19.2541 57.625 19.3221 57.5665 19.3703C57.5079 19.4146 57.4357 19.4405 57.3499 19.448C57.2679 19.4552 57.184 19.4331 57.0982 19.3819C57.0124 19.3267 56.9128 19.2669 56.7997 19.2023C56.6865 19.1378 56.5558 19.0826 56.4075 19.0369C56.2592 18.9872 56.0797 18.9715 55.869 18.99C55.67 19.0074 55.4944 19.0521 55.3422 19.1242C55.1939 19.192 55.069 19.2813 54.9675 19.392C54.8661 19.5027 54.79 19.6289 54.7392 19.7704C54.6885 19.9119 54.6631 20.0611 54.6631 20.2178C54.6631 20.3862 54.708 20.5233 54.7977 20.629C54.8875 20.7348 55.0045 20.8244 55.1489 20.898C55.2972 20.9712 55.465 21.0348 55.6523 21.089C55.8435 21.1388 56.0367 21.1944 56.2318 21.2557C56.4269 21.317 56.6181 21.3903 56.8054 21.4758C56.9966 21.5609 57.1644 21.6735 57.3088 21.8137C57.4571 21.9496 57.5761 22.1193 57.6659 22.323C57.7556 22.5267 57.8005 22.7793 57.8005 23.081C57.8004 23.5001 57.7263 23.9042 57.578 24.2932C57.4336 24.678 57.2248 25.0234 56.9516 25.3293C56.6823 25.631 56.3545 25.881 55.9682 26.0793C55.5818 26.2776 55.1467 26.398 54.6628 26.4403C54.417 26.4618 54.1711 26.4559 53.9253 26.4226C53.6834 26.3889 53.4531 26.3326 53.2346 26.2538C53.0161 26.175 52.8132 26.0753 52.6258 25.9545C52.4385 25.8338 52.2786 25.6951 52.1459 25.5382L52.7488 24.6805C52.7957 24.6215 52.8542 24.5694 52.9244 24.5241C52.9986 24.4745 53.0727 24.4465 53.1469 24.44C53.2483 24.4311 53.3478 24.4635 53.4454 24.5373C53.5469 24.6067 53.66 24.683 53.7849 24.7661C53.9137 24.8489 54.0639 24.9238 54.2356 24.9911C54.4112 25.0541 54.6258 25.0745 54.8795 25.0523C55.2814 25.0171 55.5936 24.8782 55.8161 24.6354C56.0424 24.3884 56.1556 24.0573 56.1556 23.6421C56.1556 23.454 56.1107 23.3052 56.021 23.1955C55.9312 23.0819 55.8142 22.9903 55.6698 22.9207C55.5254 22.8511 55.3596 22.7931 55.1723 22.7468C54.9888 22.7002 54.7996 22.6502 54.6045 22.5967C54.4094 22.5394 54.2181 22.4719 54.0308 22.3942C53.8474 22.3124 53.6835 22.2014 53.5392 22.0612C53.3948 21.9211 53.2777 21.7452 53.188 21.5337C53.0982 21.3183 53.0534 21.048 53.0534 20.7229C53.0534 20.3507 53.1217 19.9883 53.2583 19.6356C53.3988 19.2785 53.5978 18.9575 53.8554 18.6726C54.113 18.3837 54.4252 18.1448 54.792 17.956C55.1588 17.7672 55.5705 17.6529 56.0271 17.6129C56.2612 17.5924 56.4876 17.5981 56.7061 17.6299C56.9285 17.6614 57.1353 17.7138 57.3266 17.7872C57.5178 17.8566 57.6914 17.9452 57.8475 18.053C58.0075 18.1604 58.1441 18.2797 58.2572 18.4108L57.7479 19.1664ZM66.4762 16.7869L65.4281 25.4044L63.7189 25.554L64.1698 21.8245L60.8274 22.1169L60.3765 25.8464L58.6731 25.9954L59.7213 17.3779L61.4247 17.2288L60.9738 20.9172L64.3161 20.6248L64.767 16.9364L66.4762 16.7869Z" fill="#1455AC"/>
</g>
<g filter="url(#filter3_d_2_172)">
<path d="M40.2578 42.4148C40.2578 42.8809 40.2051 43.3301 40.0997 43.7624C39.9982 44.1904 39.8499 44.5932 39.6548 44.9706C39.4635 45.3438 39.2313 45.6854 38.9581 45.9952C38.685 46.3051 38.3767 46.5769 38.0333 46.8106C37.6937 47.0401 37.323 47.2273 36.9211 47.3721C36.523 47.5127 36.1035 47.6023 35.6626 47.6409L32.6421 47.9051L33.6903 39.2876L36.7107 39.0233C37.257 38.9755 37.7487 39.0265 38.1858 39.1763C38.6267 39.3218 38.9994 39.5458 39.3038 39.8482C39.612 40.1503 39.8481 40.5214 40.012 40.9614C40.1759 41.3976 40.2578 41.882 40.2578 42.4148ZM38.5193 42.608C38.5193 42.2398 38.4744 41.9107 38.3847 41.6209C38.2989 41.3307 38.172 41.0891 38.0042 40.8962C37.8365 40.6993 37.6296 40.5549 37.3838 40.4628C37.1419 40.3703 36.8628 40.3379 36.5468 40.3656L35.2297 40.4808L34.5153 46.4074L35.8265 46.2927C36.2363 46.2569 36.607 46.1441 36.9387 45.9545C37.2704 45.7649 37.5533 45.511 37.7875 45.1928C38.0216 44.8746 38.2012 44.4985 38.3261 44.0645C38.4548 43.6262 38.5193 43.1407 38.5193 42.608ZM43.5184 39.7615L43.2432 42.0419L45.8011 41.8181L45.6313 43.1198L43.0851 43.3426L42.7981 45.6828L46.1054 45.3934L45.9414 46.7416L40.9308 47.18L41.979 38.5624L46.9779 38.125L46.8081 39.4737L43.5184 39.7615ZM51.7732 43.0055L51.2699 40.3525C51.2426 40.2139 51.2114 40.0502 51.1763 39.8613C51.1412 39.6724 51.108 39.4677 51.0768 39.2471C50.9909 39.4779 50.907 39.6929 50.8251 39.892C50.7431 40.0911 50.6709 40.2659 50.6085 40.4163L49.4552 43.2083L51.7732 43.0055ZM54.1262 46.0255L52.815 46.1402C52.6667 46.1532 52.5516 46.128 52.4696 46.0647C52.3877 46.0013 52.3311 45.9142 52.2999 45.8034L51.9897 44.1676L48.9518 44.4334L48.2376 46.1588C48.1868 46.2651 48.1088 46.362 48.0034 46.4495C47.898 46.5332 47.7771 46.581 47.6405 46.5929L46.3059 46.7097L50.392 37.8263L52.1247 37.6748L54.1262 46.0255ZM59.7483 44.1528L59.5785 45.5485L54.9015 45.9577L55.9497 37.3401L57.6413 37.1921L56.763 44.414L59.7483 44.1528Z" fill="#1455AC"/>
</g>
<path d="M35.2648 8.27968C35.2365 8.32431 35.2084 8.35889 35.1805 8.38342C35.1523 8.40596 35.1163 8.41915 35.0725 8.42298C35.0307 8.42664 34.9865 8.41545 34.9401 8.3894C34.8935 8.36135 34.8396 8.33093 34.7785 8.29813C34.7174 8.26533 34.6477 8.2373 34.5694 8.21404C34.4909 8.18878 34.3978 8.18086 34.2903 8.19027C34.1886 8.19916 34.1003 8.22195 34.0252 8.25863C33.9519 8.29315 33.8917 8.33858 33.8444 8.39491C33.7971 8.45125 33.7636 8.51541 33.7438 8.58741C33.724 8.65941 33.7176 8.73526 33.7245 8.81496C33.732 8.90063 33.7612 8.97035 33.8121 9.02412C33.863 9.07789 33.9272 9.12347 34.0048 9.16085C34.0843 9.19806 34.1735 9.23041 34.2722 9.25791C34.3728 9.28324 34.4747 9.31147 34.5778 9.3426C34.6809 9.37373 34.7825 9.41102 34.8827 9.45445C34.9848 9.49771 35.0762 9.55497 35.1567 9.62622C35.239 9.69531 35.3078 9.78164 35.3631 9.88522C35.4183 9.9888 35.4526 10.1173 35.4661 10.2707C35.4847 10.4839 35.4645 10.6894 35.4056 10.8873C35.3484 11.0831 35.2564 11.2587 35.1294 11.4144C35.0043 11.5679 34.8468 11.6951 34.6569 11.796C34.467 11.897 34.2485 11.9583 34.0014 11.9799C33.8759 11.9908 33.7492 11.9879 33.6212 11.971C33.4952 11.9539 33.3743 11.9253 33.2584 11.8853C33.1424 11.8452 33.0336 11.7945 32.9319 11.7331C32.8301 11.6718 32.7416 11.6012 32.6664 11.5215L32.9384 11.0851C32.9599 11.0551 32.9877 11.0286 33.0218 11.0055C33.0577 10.9803 33.0946 10.966 33.1325 10.9627C33.1843 10.9582 33.2369 10.9747 33.2904 11.0122C33.3457 11.0475 33.4073 11.0862 33.4752 11.1285C33.5452 11.1706 33.6258 11.2087 33.7171 11.2428C33.8103 11.2748 33.9216 11.2852 34.0511 11.2739C34.2563 11.2559 34.4107 11.1852 34.5144 11.0617C34.6198 10.936 34.6633 10.7676 34.6448 10.5564C34.6365 10.4607 34.6067 10.385 34.5557 10.3293C34.5045 10.2715 34.4402 10.225 34.3628 10.1896C34.2854 10.1542 34.1975 10.1247 34.0991 10.1012C34.0026 10.0775 33.903 10.0521 33.8003 10.025C33.6974 9.99582 33.596 9.96152 33.4962 9.92207C33.3982 9.88046 33.3089 9.82402 33.2284 9.75277C33.1479 9.68151 33.0798 9.5921 33.0242 9.48454C32.9685 9.37498 32.9334 9.23752 32.9189 9.07215C32.9023 8.88287 32.9213 8.69852 32.9759 8.51908C33.0323 8.33747 33.1204 8.17417 33.2402 8.02918C33.3599 7.88219 33.5098 7.76066 33.6902 7.66458C33.8705 7.56849 34.0772 7.51026 34.3103 7.48986C34.4298 7.4794 34.5465 7.48224 34.6604 7.49838C34.7762 7.51435 34.8849 7.54097 34.9866 7.57826C35.088 7.61355 35.1813 7.65859 35.2664 7.71338C35.3535 7.768 35.4291 7.82864 35.4931 7.89531L35.2648 8.27968ZM37.4902 9.44616C37.6377 9.43326 37.7613 9.40036 37.861 9.34746C37.9628 9.29439 38.0431 9.22613 38.1021 9.14267C38.1609 9.05723 38.2005 8.9594 38.221 8.8492C38.2433 8.73683 38.2487 8.61489 38.2371 8.48339C38.2291 8.39174 38.2089 8.3092 38.1763 8.23575C38.1436 8.16032 38.0979 8.09706 38.0393 8.04598C37.9826 7.99472 37.9121 7.95772 37.8278 7.93499C37.7455 7.91207 37.6495 7.90541 37.54 7.915L37.0379 7.95892L36.9822 9.49061L37.4902 9.44616ZM37.5661 7.25019C37.8172 7.22822 38.035 7.24028 38.2198 7.28636C38.4043 7.33044 38.5591 7.40122 38.684 7.4987C38.811 7.596 38.9078 7.71602 38.9745 7.85875C39.0432 8.00131 39.0851 8.15926 39.1003 8.33259C39.1209 8.5677 39.103 8.78809 39.0467 8.99378C38.9922 9.1973 38.8977 9.37823 38.7629 9.53658C38.63 9.69275 38.4556 9.82145 38.2396 9.92266C38.0236 10.0239 37.7652 10.0876 37.4643 10.114L36.9592 10.1581L36.9055 11.6776L36.0448 11.7529L36.1944 7.3702L37.5661 7.25019ZM40.5654 7.67138L40.5254 8.83129L41.8314 8.71703L41.802 9.37911L40.5019 9.49285L40.4585 10.6832L42.1471 10.5354L42.1227 11.2212L39.5645 11.445L39.7201 7.06174L42.2723 6.83845L42.245 7.52444L40.5654 7.67138ZM44.4783 10.3345C44.5939 10.3244 44.6937 10.3066 44.7778 10.2812C44.8619 10.2558 44.9337 10.2264 44.993 10.1931C45.0543 10.1596 45.1055 10.125 45.1465 10.0893C45.1876 10.0536 45.2238 10.0203 45.2552 9.98946C45.2886 9.95843 45.3175 9.93281 45.3419 9.91262C45.3682 9.89225 45.3963 9.88075 45.4262 9.87814C45.4541 9.8757 45.4774 9.87867 45.4962 9.88707C45.517 9.89529 45.5329 9.90494 45.5439 9.91602L45.8782 10.2602C45.7101 10.4957 45.5026 10.6825 45.2557 10.8206C45.0088 10.9586 44.7209 11.042 44.3922 11.0708C44.1232 11.0943 43.8789 11.0675 43.6594 10.9904C43.4418 10.913 43.254 10.797 43.0959 10.6421C42.9376 10.4853 42.8106 10.2957 42.7149 10.0732C42.6209 9.84852 42.5621 9.6007 42.5384 9.32974C42.5166 9.08069 42.5229 8.84323 42.5574 8.61737C42.5936 8.38934 42.6534 8.17733 42.7366 7.98133C42.8197 7.78334 42.9243 7.60253 43.0505 7.43891C43.1788 7.27511 43.324 7.13391 43.4863 7.01532C43.6504 6.89455 43.8286 6.79765 44.021 6.72461C44.2132 6.64957 44.4169 6.60264 44.632 6.58382C44.7914 6.56987 44.9382 6.57209 45.0723 6.59047C45.2064 6.60885 45.3296 6.64023 45.4419 6.68461C45.554 6.727 45.6552 6.78239 45.7455 6.85078C45.8377 6.91701 45.9205 6.99207 45.9941 7.07598L45.7234 7.45802C45.7037 7.48584 45.6798 7.51102 45.6517 7.53356C45.6255 7.55592 45.5896 7.56911 45.5437 7.57312C45.4979 7.57713 45.4536 7.56394 45.4108 7.53356C45.3678 7.50118 45.3157 7.4676 45.2544 7.4328C45.193 7.39602 45.1149 7.3647 45.0203 7.33885C44.9255 7.311 44.8034 7.30362 44.654 7.31669C44.4567 7.33395 44.277 7.39083 44.1148 7.48733C43.9526 7.58384 43.8154 7.71329 43.7031 7.87569C43.5926 8.03593 43.511 8.22678 43.4581 8.44823C43.4072 8.66951 43.3934 8.91364 43.4167 9.18062C43.4338 9.37587 43.473 9.54811 43.5342 9.69734C43.5953 9.84458 43.6734 9.96825 43.7684 10.0683C43.8634 10.1664 43.971 10.2383 44.0915 10.284C44.2119 10.3297 44.3409 10.3465 44.4783 10.3345ZM47.2519 10.7724L46.3822 10.8485L46.5318 6.46579L47.4015 6.3897L47.2519 10.7724ZM50.2917 8.85318L49.9147 7.5039C49.8945 7.4334 49.8711 7.35012 49.8446 7.25406C49.8182 7.158 49.792 7.05388 49.7661 6.94171C49.7322 7.05911 49.6986 7.16846 49.6653 7.26975C49.632 7.37103 49.6027 7.45993 49.5772 7.53644L49.1082 8.95672L50.2917 8.85318ZM51.6367 10.3888L50.9672 10.4474C50.8915 10.454 50.8312 10.4412 50.7862 10.409C50.7412 10.3768 50.7082 10.3325 50.6872 10.2761L50.4548 9.44421L48.9038 9.57991L48.6132 10.4576C48.5918 10.5116 48.556 10.561 48.5056 10.6055C48.4552 10.6481 48.3951 10.6724 48.3253 10.6785L47.6439 10.7381L49.3506 6.21918L50.2352 6.14179L51.6367 10.3888ZM54.4456 9.43536L54.4204 10.1453L52.0325 10.3542L52.1881 5.97093L53.0518 5.89537L52.9214 9.5687L54.4456 9.43536ZM60.009 7.18391C60.0297 7.42101 60.0227 7.65049 59.9879 7.87237C59.9529 8.09225 59.8937 8.2992 59.8103 8.49321C59.7289 8.68704 59.624 8.86486 59.4956 9.02667C59.3672 9.18847 59.2201 9.33084 59.0542 9.45377C58.8901 9.57453 58.7079 9.67278 58.5078 9.74851C58.3096 9.82407 58.0979 9.8717 57.8728 9.89139C57.5919 9.91597 57.3356 9.88921 57.1039 9.8111C56.872 9.73101 56.6709 9.61208 56.5005 9.45433C56.3299 9.29459 56.1925 9.10083 56.0883 8.87305C55.984 8.64527 55.9199 8.3949 55.8961 8.12194C55.8753 7.88485 55.8824 7.65636 55.9174 7.43648C55.9522 7.2146 56.0103 7.00674 56.0917 6.81291C56.1751 6.6189 56.281 6.441 56.4094 6.27919C56.5376 6.11539 56.6838 5.97311 56.8479 5.85235C57.0138 5.72942 57.1958 5.63018 57.394 5.55462C57.5942 5.47889 57.8068 5.43117 58.032 5.41147C58.3129 5.3869 58.5693 5.41466 58.8011 5.49475C59.033 5.57485 59.2342 5.69477 59.4048 5.85451C59.5754 6.01425 59.7128 6.20801 59.817 6.43579C59.9213 6.66357 59.9853 6.91295 60.009 7.18391ZM59.1232 7.28249C59.1068 7.0952 59.069 6.92686 59.0097 6.77745C58.9503 6.62606 58.8711 6.50049 58.772 6.40074C58.6747 6.29883 58.5597 6.22356 58.427 6.17495C58.2963 6.12616 58.1502 6.10882 57.9888 6.12294C57.7796 6.14125 57.5941 6.20064 57.4322 6.30113C57.2723 6.40145 57.1394 6.53454 57.0335 6.7004C56.9295 6.86609 56.8553 7.06131 56.8107 7.28605C56.7661 7.51079 56.7555 7.75665 56.7789 8.02363C56.7954 8.21291 56.8333 8.38225 56.8926 8.53165C56.9516 8.67906 57.0288 8.80381 57.1241 8.9059C57.2213 9.00781 57.3353 9.08316 57.4661 9.13195C57.5986 9.17858 57.7456 9.19483 57.907 9.18071C58.1162 9.16241 58.3018 9.10401 58.4638 9.00551C58.6257 8.90502 58.7586 8.77193 58.8626 8.60624C58.9685 8.44037 59.0439 8.24607 59.0886 8.02332C59.1352 7.7984 59.1467 7.55146 59.1232 7.28249ZM61.5672 5.83396L61.5231 7.08457L62.9367 6.9609L62.9034 7.64741L61.4987 7.7703L61.436 9.53147L60.5663 9.60756L60.7219 5.22432L63.2741 5.00103L63.2468 5.68702L61.5672 5.83396ZM64.7426 5.55615L64.6984 6.80676L66.112 6.68309L66.0788 7.3696L64.6741 7.49249L64.6114 9.25366L63.7417 9.32975L63.8973 4.94651L66.4495 4.72322L66.4222 5.40921L64.7426 5.55615ZM67.918 5.27834L67.8779 6.43825L69.1839 6.32399L69.1545 6.98607L67.8545 7.09981L67.8111 8.29012L69.4996 8.14239L69.4753 8.82812L66.9171 9.05194L67.0726 4.6687L69.6249 4.44541L69.5976 5.1314L67.918 5.27834ZM71.4677 6.36209C71.6172 6.34901 71.7428 6.31594 71.8445 6.26287C71.9463 6.2098 72.0277 6.14244 72.0889 6.06081C72.15 5.97917 72.192 5.88615 72.215 5.78175C72.238 5.67735 72.2445 5.56836 72.2346 5.4548C72.2191 5.27748 72.1521 5.1428 72.0336 5.05078C71.9171 4.95858 71.7453 4.92241 71.5182 4.94229L71.1147 4.97758L71.0643 6.39738L71.4677 6.36209ZM71.5414 4.27774C71.7984 4.25525 72.02 4.26397 72.2062 4.30389C72.3942 4.34165 72.5502 4.40429 72.6743 4.49181C72.8003 4.57716 72.896 4.68522 72.9617 4.816C73.0291 4.94461 73.0698 5.08761 73.0835 5.24501C73.0978 5.40839 73.0884 5.5648 73.0553 5.71425C73.0242 5.86353 72.9711 6.00169 72.8958 6.12873C72.8206 6.25577 72.7253 6.37052 72.6098 6.47297C72.4962 6.57526 72.3632 6.66118 72.2107 6.73074C72.2651 6.75609 72.3152 6.78885 72.3608 6.82902C72.4085 6.86902 72.451 6.91851 72.4883 6.97748L73.3344 8.4905L72.5543 8.55874C72.4049 8.57182 72.3024 8.52457 72.2468 8.41701L71.5698 7.11506C71.5413 7.06535 71.5081 7.03011 71.4702 7.00934C71.4322 6.98857 71.3774 6.98132 71.3056 6.98759L71.0427 7.0106L70.9823 8.69627L70.1216 8.77158L70.2712 4.38886L71.5414 4.27774Z" fill="white"/>
<defs>
<filter id="filter0_d_2_172" x="13.5191" y="10.6886" width="68.302" height="29.2995" filterUnits="userSpaceOnUse" color-interpolation-filters="sRGB">
<feFlood flood-opacity="0" result="BackgroundImageFix"/>
<feColorMatrix in="SourceAlpha" type="matrix" values="0 0 0 0 0 0 0 0 0 0 0 0 0 0 0 0 0 0 127 0" result="hardAlpha"/>
<feOffset dy="2.25385"/>
<feGaussianBlur stdDeviation="1.69039"/>
<feComposite in2="hardAlpha" operator="out"/>
<feColorMatrix type="matrix" values="0 0 0 0 0 0 0 0 0 0 0 0 0 0 0 0 0 0 0.15 0"/>
<feBlend mode="normal" in2="BackgroundImageFix" result="effect1_dropShadow_2_172"/>
<feBlend mode="normal" in="SourceGraphic" in2="effect1_dropShadow_2_172" result="shape"/>
</filter>
<filter id="filter1_d_2_172" x="9.35714" y="30.8045" width="66.934" height="29.4605" filterUnits="userSpaceOnUse" color-interpolation-filters="sRGB">
<feFlood flood-opacity="0" result="BackgroundImageFix"/>
<feColorMatrix in="SourceAlpha" type="matrix" values="0 0 0 0 0 0 0 0 0 0 0 0 0 0 0 0 0 0 127 0" result="hardAlpha"/>
<feOffset dy="2.25385"/>
<feGaussianBlur stdDeviation="1.69039"/>
<feComposite in2="hardAlpha" operator="out"/>
<feColorMatrix type="matrix" values="0 0 0 0 0 0 0 0 0 0 0 0 0 0 0 0 0 0 0.15 0"/>
<feBlend mode="normal" in2="BackgroundImageFix" result="effect1_dropShadow_2_172"/>
<feBlend mode="normal" in="SourceGraphic" in2="effect1_dropShadow_2_172" result="shape"/>
</filter>
<filter id="filter2_d_2_172" x="31.9713" y="16.1353" width="35.6318" height="13.8821" filterUnits="userSpaceOnUse" color-interpolation-filters="sRGB">
<feFlood flood-opacity="0" result="BackgroundImageFix"/>
<feColorMatrix in="SourceAlpha" type="matrix" values="0 0 0 0 0 0 0 0 0 0 0 0 0 0 0 0 0 0 127 0" result="hardAlpha"/>
<feOffset dy="0.563463"/>
<feGaussianBlur stdDeviation="0.563463"/>
<feComposite in2="hardAlpha" operator="out"/>
<feColorMatrix type="matrix" values="0 0 0 0 0 0 0 0 0 0 0 0 0 0 0 0 0 0 0.15 0"/>
<feBlend mode="normal" in2="BackgroundImageFix" result="effect1_dropShadow_2_172"/>
<feBlend mode="normal" in="SourceGraphic" in2="effect1_dropShadow_2_172" result="shape"/>
</filter>
<filter id="filter3_d_2_172" x="31.5152" y="36.4443" width="29.3603" height="13.1512" filterUnits="userSpaceOnUse" color-interpolation-filters="sRGB">
<feFlood flood-opacity="0" result="BackgroundImageFix"/>
<feColorMatrix in="SourceAlpha" type="matrix" values="0 0 0 0 0 0 0 0 0 0 0 0 0 0 0 0 0 0 127 0" result="hardAlpha"/>
<feOffset dy="0.563463"/>
<feGaussianBlur stdDeviation="0.563463"/>
<feComposite in2="hardAlpha" operator="out"/>
<feColorMatrix type="matrix" values="0 0 0 0 0 0 0 0 0 0 0 0 0 0 0 0 0 0 0.15 0"/>
<feBlend mode="normal" in2="BackgroundImageFix" result="effect1_dropShadow_2_172"/>
<feBlend mode="normal" in="SourceGraphic" in2="effect1_dropShadow_2_172" result="shape"/>
</filter>
</defs>
</svg>
