<svg width="18" height="18" viewBox="0 0 18 18" fill="none" xmlns="http://www.w3.org/2000/svg">
<path d="M3.13575 0.262498C2.40843 0.261767 1.70679 0.531366 1.16703 1.01896C0.627268 1.50655 0.287901 2.17734 0.214806 2.90112C0.141712 3.6249 0.340106 4.35003 0.771473 4.93573C1.20284 5.52144 1.83641 5.92593 2.54918 6.0707V11.4095C2.54918 12.4987 2.98177 13.5433 3.75179 14.3135C4.52181 15.0837 5.56618 15.5163 6.65515 15.5163H8.75859L7.413 16.861L8.24358 17.6918L11.004 14.9297L8.24358 12.1675L7.413 12.9983L8.75859 14.343H6.65515C5.87732 14.343 5.13134 14.0339 4.58132 13.4838C4.03131 12.9337 3.72231 12.1875 3.72231 11.4095V6.0707C4.43508 5.92593 5.06865 5.52144 5.50002 4.93573C5.93138 4.35003 6.12978 3.6249 6.05668 2.90112C5.98359 2.17734 5.64422 1.50655 5.10446 1.01896C4.5647 0.531366 3.86306 0.261767 3.13575 0.262498ZM10.5898 1.26456L9.75927 0.433811L6.99888 3.19593L9.75927 5.95805L10.5898 5.1273L9.24426 3.78262H11.3477C11.7328 3.78262 12.1142 3.85849 12.47 4.00591C12.8259 4.15333 13.1492 4.36941 13.4215 4.6418C13.6939 4.91419 13.9099 5.23757 14.0573 5.59347C14.2047 5.94938 14.2805 6.33083 14.2805 6.71605V12.0549C13.5684 12.2003 12.9356 12.605 12.5049 13.1905C12.0741 13.776 11.8761 14.5006 11.9491 15.2239C12.0222 15.9472 12.3611 16.6175 12.9003 17.1051C13.4394 17.5926 14.1403 17.8625 14.8671 17.8625C15.5939 17.8625 16.2948 17.5926 16.834 17.1051C17.3731 16.6175 17.712 15.9472 17.7851 15.2239C17.8581 14.5006 17.6601 13.776 17.2293 13.1905C16.7986 12.605 16.1658 12.2003 15.4537 12.0549V6.71605C15.4537 5.62686 15.0211 4.58228 14.2511 3.8121C13.481 3.04192 12.4367 2.60924 11.3477 2.60924H9.24426L10.5898 1.26456Z" fill="#B9B9B9"/>
</svg>
