<svg width="32" height="29" viewBox="0 0 32 29" fill="none" xmlns="http://www.w3.org/2000/svg">
<path d="M30.1298 13.3624C29.6792 13.3133 29.2344 13.5126 28.8965 13.8159C28.625 14.0585 28.469 14.2896 28.3823 14.512C28.1744 15.0637 27.7353 15.494 27.2068 15.754L25.0289 16.8256C25.0751 16.762 25.1214 16.6956 25.1705 16.632C25.4766 16.2248 25.6413 15.728 25.6442 15.2167L25.6817 10.8784C25.6817 9.93101 24.9134 9.15981 23.9631 9.15981H22.3399V6.78268H21.7651V0.786414C21.7651 0.413813 21.4676 0.0412126 21.0978 0.00366371C20.653 -0.0396619 20.2776 0.306943 20.2776 0.743088V6.77979H19.7028V9.15693H11.7713V6.77979H11.1965V0.786414C11.1965 0.413813 10.899 0.0412126 10.5293 0.00366371C10.0845 -0.0396619 9.70899 0.306943 9.70899 0.743088V6.77979H9.1342V9.15693H7.51093C6.56354 9.15693 5.79235 9.92523 5.79235 10.8755V15.3814C5.79235 15.7655 5.92521 16.1352 6.15917 16.4385C7.08345 17.643 7.88064 18.9312 8.54497 20.2801L7.10945 20.9877C6.75129 21.1639 6.34692 21.1639 5.95987 21.0657C5.84145 21.0339 5.71436 21.0253 5.57861 21.0426C5.17712 21.0917 4.83052 21.395 4.72654 21.7878C4.56479 22.4059 4.98938 22.998 5.60171 23.0616C5.879 23.0905 6.15051 22.9691 6.35847 22.7843C6.52599 22.6341 6.62131 22.4926 6.6733 22.3568C6.80039 22.0189 7.0719 21.7531 7.3954 21.5943L8.83381 20.8866C8.984 21.2188 9.12842 21.5538 9.26417 21.8918L3.93512 24.5144C3.35167 24.8004 2.69312 24.8033 2.06345 24.6415C1.86993 24.5924 1.66197 24.5751 1.44245 24.604C0.786792 24.6848 0.223558 25.1787 0.0560326 25.8171C-0.20681 26.8222 0.486401 27.787 1.48 27.8938C1.93059 27.9429 2.3754 27.7436 2.71334 27.4403C2.98485 27.1977 3.14082 26.9667 3.22747 26.7442C3.43543 26.1926 3.87447 25.7622 4.40304 25.5022L9.65122 22.92C9.83607 23.4515 9.99782 23.9916 10.1422 24.5375L8.36878 25.4098C7.78533 25.6958 7.12678 25.6987 6.49711 25.5369C6.30359 25.4878 6.09563 25.4705 5.87611 25.4994C5.22045 25.5802 4.65722 26.0741 4.48969 26.7125C4.22685 27.7176 4.92006 28.6823 5.91366 28.7892C6.36425 28.8383 6.80905 28.639 7.14699 28.3357C7.4185 28.0931 7.57447 27.862 7.66113 27.6396C7.86909 27.088 8.30812 26.6576 8.83669 26.3976L10.4051 25.6264C10.4484 25.8315 10.4917 26.0366 10.5293 26.2446C10.6044 26.6432 10.6275 27.0475 10.6188 27.4519C10.5957 28.5495 11.7135 29.3062 12.7244 28.8788L19.8876 25.8517C20.5086 25.5889 20.9823 25.0603 21.1758 24.4133L21.1787 24.4018C21.3751 23.7432 21.6149 23.0818 21.8806 22.4232L24.3531 21.2072C24.7545 21.0108 25.208 21.0079 25.6384 21.1206C25.7712 21.1552 25.9157 21.1668 26.0659 21.1466C26.5164 21.0917 26.9035 20.7509 27.019 20.3118C27.1981 19.6215 26.7244 18.9601 26.0399 18.885C25.7308 18.8532 25.4246 18.989 25.1936 19.1969C25.0058 19.3644 24.899 19.5233 24.8412 19.6764C24.6968 20.0548 24.3964 20.3494 24.0324 20.5285L22.3427 21.3603C22.776 20.4303 23.2699 19.5233 23.8071 18.6539L27.6805 16.7476C28.2639 16.4616 28.9225 16.4587 29.5521 16.6205C29.7456 16.6696 29.9536 16.6869 30.1731 16.658C30.8288 16.5772 31.392 16.0833 31.5595 15.4449C31.8166 14.434 31.1263 13.4693 30.1298 13.3624Z" fill="url(#paint0_linear_2_291)"/>
<defs>
<linearGradient id="paint0_linear_2_291" x1="15.801" y1="-1.72835" x2="15.801" y2="27.0925" gradientUnits="userSpaceOnUse">
<stop stop-color="#75A8EC"/>
<stop offset="1" stop-color="#1455AC"/>
</linearGradient>
</defs>
</svg>
