<svg width="118" height="118" viewBox="0 0 118 118" fill="none" xmlns="http://www.w3.org/2000/svg">
<path d="M54.756 2.60698C57.0415 0.12604 60.9585 0.126042 63.244 2.60698L69.1858 9.05701C70.6977 10.6982 73.0204 11.3206 75.1503 10.6552L83.5211 8.04022C86.7409 7.0344 90.1331 8.99292 90.8719 12.2842L92.7926 20.841C93.2814 23.0183 94.9817 24.7186 97.159 25.2074L105.716 27.1281C109.007 27.8669 110.966 31.2591 109.96 34.4789L107.345 42.8497C106.679 44.9796 107.302 47.3023 108.943 48.8142L115.393 54.756C117.874 57.0415 117.874 60.9585 115.393 63.244L108.943 69.1858C107.302 70.6977 106.679 73.0204 107.345 75.1503L109.96 83.5211C110.966 86.7409 109.007 90.1331 105.716 90.8719L97.159 92.7926C94.9817 93.2814 93.2814 94.9817 92.7926 97.159L90.8719 105.716C90.1331 109.007 86.7409 110.966 83.5211 109.96L75.1503 107.345C73.0204 106.679 70.6977 107.302 69.1858 108.943L63.244 115.393C60.9585 117.874 57.0415 117.874 54.756 115.393L48.8142 108.943C47.3023 107.302 44.9796 106.679 42.8496 107.345L34.4789 109.96C31.2591 110.966 27.8669 109.007 27.1281 105.716L25.2074 97.159C24.7186 94.9817 23.0183 93.2814 20.841 92.7926L12.2842 90.8719C8.99292 90.1331 7.0344 86.7409 8.04022 83.5211L10.6552 75.1503C11.3206 73.0204 10.6982 70.6977 9.05701 69.1858L2.60698 63.244C0.12604 60.9585 0.126041 57.0415 2.60698 54.756L9.05701 48.8142C10.6982 47.3023 11.3206 44.9796 10.6552 42.8496L8.04022 34.4789C7.0344 31.2591 8.99292 27.8669 12.2842 27.1281L20.841 25.2074C23.0183 24.7186 24.7186 23.0183 25.2074 20.841L27.1281 12.2842C27.8669 8.99292 31.2591 7.0344 34.4789 8.04022L42.8497 10.6552C44.9796 11.3206 47.3023 10.6982 48.8142 9.05701L54.756 2.60698Z" fill="#1455AC"/>
</svg>
