<svg width="14" height="14" viewBox="0 0 14 14" fill="none" xmlns="http://www.w3.org/2000/svg">
<g clip-path="url(#clip0_2_299)">
<path d="M3.9999 1.42625C4.73665 1.9635 5.29432 2.71833 5.76915 3.41192L6.14132 3.95908C6.25689 4.128 6.30977 4.332 6.29081 4.53578C6.27185 4.73957 6.18224 4.93031 6.03749 5.075L5.24649 5.866L5.3299 6.04333C5.53407 6.45692 5.8864 7.0525 6.41665 7.58333C6.7828 7.94395 7.19557 8.25393 7.64399 8.505L7.85807 8.61992L8.04882 8.71442L8.13399 8.7535L8.9244 7.9625C9.06966 7.81743 9.26125 7.72798 9.46573 7.70975C9.67021 7.69151 9.8746 7.74567 10.0432 7.86275L10.6347 8.27283C11.3067 8.74533 12.0085 9.28375 12.5539 9.98258C12.6482 10.1039 12.7082 10.2482 12.7276 10.4006C12.7469 10.553 12.7251 10.7078 12.6642 10.8488C12.1759 11.9881 10.9404 12.9582 9.65532 12.9103L9.48032 12.901L9.3444 12.8893L9.1939 12.8718L9.02999 12.8497L8.85207 12.8199L8.6619 12.7826L8.46007 12.7377L8.24657 12.6828L8.02199 12.6187L7.78749 12.5428C6.71065 12.1777 5.3439 11.4602 3.94157 10.0578C2.53982 8.65608 1.82232 7.28933 1.45715 6.2125L1.38132 5.978L1.31715 5.75342L1.26232 5.53992L1.21682 5.33808C1.20368 5.27487 1.19143 5.21147 1.18007 5.14792L1.1509 4.97L1.12757 4.80608L1.11065 4.65558L1.09899 4.51967L1.08965 4.34467C1.0424 3.06367 2.02299 1.81942 3.15699 1.3335C3.29347 1.27456 3.44294 1.25213 3.59071 1.26839C3.73849 1.28465 3.8795 1.33905 3.9999 1.42625ZM3.45915 2.48092C2.83382 2.80758 2.22832 3.55425 2.25574 4.3015L2.2674 4.49283L2.28024 4.61242L2.29715 4.74658L2.32049 4.89417L2.35024 5.05575L2.38815 5.22958L2.43482 5.41625L2.49082 5.614L2.55732 5.82283C2.58182 5.894 2.60749 5.96692 2.63549 6.04158L2.72532 6.27025L2.82799 6.50767C3.19432 7.31383 3.79165 8.25767 4.76757 9.233C5.7429 10.2083 6.68674 10.8062 7.4929 11.1726L7.73032 11.2752L7.95899 11.3651C8.03365 11.3931 8.10657 11.4187 8.17774 11.4432L8.38657 11.5098L8.5849 11.5657L8.77099 11.6124L8.94482 11.6503L9.1064 11.6801L9.25457 11.7034L9.38874 11.7209L9.50774 11.7326L9.69907 11.7442C10.4364 11.7717 11.1889 11.1697 11.5144 10.5525C11.0991 10.0654 10.5834 9.66583 10.0147 9.26333L9.57832 8.95942L9.46749 9.0755L9.23065 9.33392L9.10524 9.46575C8.7634 9.814 8.3644 10.1097 7.88607 9.91667L7.75424 9.86125L7.59324 9.78892L7.5034 9.74633L7.30624 9.64775L7.08982 9.53108C6.54214 9.2263 6.0384 8.84854 5.5924 8.40817C5.15203 7.96216 4.77428 7.45842 4.46949 6.91075L4.35282 6.69492L4.25365 6.49717L4.13932 6.24633L4.08332 6.11333C3.9019 5.66475 4.15157 5.28617 4.47065 4.95833L4.60132 4.83L4.92624 4.53075L5.0429 4.41992L4.76699 4.01567C4.3569 3.42067 3.95615 2.884 3.45857 2.48033L3.45915 2.48092ZM8.7459 3.52333L8.81357 3.53092C9.23818 3.60581 9.62818 3.81322 9.92767 4.1234C10.2272 4.43357 10.4208 4.83061 10.4807 5.25758C10.5021 5.40527 10.4661 5.55554 10.38 5.67747C10.294 5.7994 10.1645 5.88372 10.0182 5.91309C9.87191 5.94245 9.7199 5.91463 9.59348 5.83534C9.46706 5.75606 9.37584 5.63133 9.33857 5.48683L9.32515 5.41975C9.30168 5.25239 9.23025 5.09541 9.11949 4.96777C9.00872 4.84014 8.86337 4.74731 8.70099 4.7005L8.61057 4.68008C8.46409 4.65412 8.33307 4.57318 8.2443 4.45381C8.15552 4.33444 8.11571 4.18567 8.13299 4.03792C8.15028 3.89017 8.22336 3.7546 8.33729 3.65895C8.45122 3.56329 8.59739 3.51478 8.7459 3.52333ZM8.74999 1.75C9.67824 1.75 10.5685 2.11875 11.2249 2.77513C11.8812 3.4315 12.25 4.32174 12.25 5.25C12.2498 5.39868 12.1929 5.54169 12.0908 5.6498C11.9888 5.75791 11.8493 5.82297 11.7008 5.83168C11.5524 5.8404 11.4063 5.79211 11.2922 5.69668C11.1782 5.60125 11.105 5.46589 11.0874 5.31825L11.0833 5.25C11.0835 4.65758 10.8583 4.08728 10.4533 3.65489C10.0483 3.2225 9.49399 2.96044 8.90282 2.92192L8.74999 2.91667C8.59528 2.91667 8.4469 2.85521 8.33751 2.74581C8.22811 2.63642 8.16665 2.48804 8.16665 2.33333C8.16665 2.17862 8.22811 2.03025 8.33751 1.92085C8.4469 1.81146 8.59528 1.75 8.74999 1.75Z" fill="#1455AC"/>
</g>
<defs>
<clipPath id="clip0_2_299">
<rect width="14" height="14" fill="white"/>
</clipPath>
</defs>
</svg>
