<svg width="22" height="19" viewBox="0 0 22 19" fill="none" xmlns="http://www.w3.org/2000/svg">
<path d="M11 18.125C10.872 18.1263 10.7459 18.094 10.6344 18.0313C10.2313 17.8063 0.875 12.4906 0.875 5.75C0.875 4.56941 1.24646 3.41875 1.93676 2.461C2.62707 1.50326 3.60121 0.786992 4.72122 0.413657C5.84122 0.0403215 7.0503 0.028848 8.17719 0.380861C9.30408 0.732875 10.2916 1.43053 11 2.375C11.7084 1.43053 12.6959 0.732875 13.8228 0.380861C14.9497 0.028848 16.1588 0.0403215 17.2788 0.413657C18.3988 0.786992 19.3729 1.50326 20.0632 2.461C20.7535 3.41875 21.125 4.56941 21.125 5.75C21.125 8.61875 19.4656 11.5625 16.1938 14.5063C14.708 15.8419 13.0903 17.023 11.3656 18.0313C11.2541 18.094 11.128 18.1263 11 18.125ZM6.5 1.625C5.40598 1.625 4.35677 2.0596 3.58318 2.83318C2.8096 3.60677 2.375 4.65598 2.375 5.75C2.375 10.925 9.3125 15.4719 11 16.5031C12.6875 15.4719 19.625 10.925 19.625 5.75C19.6259 4.7964 19.2963 3.87195 18.6924 3.13394C18.0885 2.39593 17.2476 1.88995 16.3127 1.70208C15.3777 1.51422 14.4066 1.65607 13.5645 2.10351C12.7224 2.55095 12.0613 3.27634 11.6938 4.15625C11.6372 4.29381 11.5411 4.41146 11.4176 4.49426C11.2941 4.57707 11.1487 4.62128 11 4.62128C10.8513 4.62128 10.7059 4.57707 10.5824 4.49426C10.4589 4.41146 10.3628 4.29381 10.3063 4.15625C9.99408 3.40462 9.4656 2.76272 8.78791 2.31203C8.11021 1.86135 7.31387 1.62221 6.5 1.625Z" fill="#B9B9B9"/>
</svg>
